<svg width="14" height="15" viewBox="0 0 14 15" fill="none" xmlns="http://www.w3.org/2000/svg">
<path fill-rule="evenodd" clip-rule="evenodd" d="M7.5 0.5H2.5V4.5H0.00543213V13.9886H5.99999V12.9886H1.00543V5.5H9.45318V4.5H7.5V0.5ZM6.5 4.5V1.5H3.5V4.5H6.5ZM10 13C11.6569 13 13 11.6569 13 10C13 8.34315 11.6569 7 10 7C8.34315 7 7 8.34315 7 10C7 11.6569 8.34315 13 10 13ZM14 10C14 12.2091 12.2091 14 10 14C7.79086 14 6 12.2091 6 10C6 7.79086 7.79086 6 10 6C12.2091 6 14 7.79086 14 10ZM11.4921 8.2383L9.43751 10.2929L8.70514 9.56052L7.99803 10.2676L9.43751 11.7071L12.1992 8.94541L11.4921 8.2383Z" fill="#0F0B46"/>
</svg>
