<svg xmlns="http://www.w3.org/2000/svg" width="14" height="14" viewBox="0 0 14 14">
    <defs>
        <style>
            .prefix__cls-3{fill:#1774de}
        </style>
    </defs>
    <g id="prefix__ic_delete" transform="translate(-256 -74)" style="opacity:.75">
        <path id="prefix__bg" d="M0 0H14V14H0z" transform="translate(256 74)" style="fill:none"/>
        <path id="prefix__Rectangle_51" d="M0 0H1V9H0z" class="prefix__cls-3" data-name="Rectangle 51" transform="translate(267 78)"/>
        <path id="prefix__Path_107" d="M0 0h1v10H0z" class="prefix__cls-3" data-name="Path 107" transform="translate(258 77)"/>
        <path id="prefix__Rectangle_287" d="M0 0H1V6H0z" class="prefix__cls-3" data-name="Rectangle 287" transform="translate(261 79)"/>
        <path id="prefix__Rectangle_289" d="M0 0H1V6H0z" class="prefix__cls-3" data-name="Rectangle 289" transform="translate(264 79)"/>
        <path id="prefix__Rectangle_108" d="M0 0H1V3H0z" class="prefix__cls-3" data-name="Rectangle 108" transform="translate(260 74)"/>
        <path id="prefix__Rectangle_109" d="M0 0H1V3H0z" class="prefix__cls-3" data-name="Rectangle 109" transform="translate(265 74)"/>
        <path id="prefix__Rectangle_106" d="M0 0H1V8H0z" class="prefix__cls-3" data-name="Rectangle 106" transform="rotate(90 90.5 176.5)"/>
        <path id="prefix__Rectangle_110" d="M0 0H1V14H0z" class="prefix__cls-3" data-name="Rectangle 110" transform="rotate(90 96.5 173.5)"/>
        <path id="prefix__Rectangle_286" d="M0 0H1V6H0z" class="prefix__cls-3" data-name="Rectangle 286" transform="rotate(90 96 170)"/>
    </g>
</svg>
