<svg xmlns="http://www.w3.org/2000/svg" width="16.25" height="13" viewBox="0 0 16.25 13">
    <path id="prefix__door-open-solid" fill="#1774de" d="M15.844 11.376h-2.031V2.882a1.239 1.239 0 0 0-1.219-1.256H9.75v1.625h2.438V13h3.656a.406.406 0 0 0 .406-.406v-.813a.406.406 0 0 0-.406-.405zM7.928.027L3.053 1.29a.837.837 0 0 0-.615.817v9.27H.406a.406.406 0 0 0-.406.405v.813A.406.406 0 0 0 .406 13h8.532V.843a.819.819 0 0 0-1.01-.816zM6.7 7.313c-.336 0-.609-.364-.609-.813s.273-.813.609-.813.609.364.609.813-.269.813-.609.813z" transform="translate(0 -.001)"/>
</svg>
