<svg xmlns="http://www.w3.org/2000/svg" width="12" height="12" viewBox="0 0 12 12">
    <path id="prefix__check-square-regular" d="M10.714 32H1.286A1.286 1.286 0 0 0 0 33.286v9.429A1.286 1.286 0 0 0 1.286 44h9.429A1.286 1.286 0 0 0 12 42.714v-9.428A1.286 1.286 0 0 0 10.714 32zm0 10.714H1.286v-9.428h9.429zm-.96-6.474l-4.623 4.585a.321.321 0 0 1-.455 0l-2.431-2.453a.321.321 0 0 1 0-.455l.609-.6a.321.321 0 0 1 .455 0l1.6 1.615L8.7 35.175a.321.321 0 0 1 .455 0l.6.609a.321.321 0 0 1 0 .455z" transform="translate(0 -32)" style="fill:#1774de"/>
</svg>
