<svg xmlns="http://www.w3.org/2000/svg" width="14" height="14" viewBox="0 0 14 14">
    <defs>
        <style>
            .prefix__cls-2{fill:#1774de}
        </style>
    </defs>
    <g id="prefix__ic_clear" transform="translate(-1493.025 -225.025)">
        <g id="prefix__ic_clear-2" data-name="ic_clear" transform="translate(-14.712 -64.422)" style="opacity:.75">
            <path id="prefix__Path_79" d="M773.109 474.474a5.763 5.763 0 0 1-4.5.988 8.583 8.583 0 0 0 4.788 6.289 16.892 16.892 0 0 0 2.492-4.239l.891.959c-.288.561-.583 1.177-.914 1.772a16.291 16.291 0 0 1-1.845 2.628.56.56 0 0 1-.707.186 9.472 9.472 0 0 1-5.86-7.538c-.044-.241-.064-.488-.09-.733a.593.593 0 0 1 .737-.687 5.1 5.1 0 0 0 4.063-.458.164.164 0 0 1 .155 0c.262.268.518.544.79.833z" class="prefix__cls-2" data-name="Path 79" transform="translate(740.379 -179.668)"/>
            <path id="prefix__Path_80" d="M931.538 351.8c.405-.2.818-.421 1.243-.614a1.408 1.408 0 0 1 1.569.285c.091.088.165.192.282.33a1.935 1.935 0 0 1 .151-.208q1.706-1.71 3.414-3.417a.79.79 0 0 1 .826-.245.774.774 0 0 1 .4 1.206 1.783 1.783 0 0 1-.173.187q-1.682 1.683-3.365 3.364c-.047.047-.1.085-.163.134.048.058.075.1.107.128a1.435 1.435 0 0 1 .263 1.727l-.562 1.123z" class="prefix__cls-2" data-name="Path 80" transform="translate(582.157 -58.453)"/>
        </g>
    </g>
</svg>
