<svg width="14" height="14" viewBox="0 0 14 14" fill="none" xmlns="http://www.w3.org/2000/svg">
<path fill-rule="evenodd" clip-rule="evenodd" d="M3.5 0H4.5V1.5H6V2.5H4.5V4H3.5V2.5H2V1.5H3.5V0ZM11.5 6C11.5 4.067 9.933 2.5 8.00001 2.5V1.5C10.4853 1.5 12.5 3.51472 12.5 6C12.5 8.48528 10.4853 10.5 8.00001 10.5C6.9375 10.5 5.961 10.1318 5.19116 9.51595L1.35356 13.3536L0.646454 12.6464L4.48406 8.80884C3.86824 8.03901 3.50001 7.06251 3.50001 6H4.50001C4.50001 7.933 6.06701 9.5 8.00001 9.5C9.933 9.5 11.5 7.933 11.5 6Z" fill="#1774DE"/>
</svg>
