<?xml version="1.0" encoding="UTF-8"?>
<svg xmlns="http://www.w3.org/2000/svg" xmlns:xlink="http://www.w3.org/1999/xlink" width="14px" height="14px" viewBox="0 0 14 14" version="1.1">
<g id="surface1">
<path style=" stroke:none;fill-rule:nonzero;fill:rgb(0%,0%,0%);fill-opacity:1;" d="M 9.824219 3.789062 L 9.824219 3.019531 C 9.824219 2.949219 9.765625 2.890625 9.695312 2.890625 L 3.53125 2.890625 C 3.460938 2.890625 3.402344 2.949219 3.402344 3.019531 L 3.402344 3.789062 C 3.402344 3.859375 3.460938 3.917969 3.53125 3.917969 L 9.699219 3.917969 C 9.765625 3.917969 9.824219 3.859375 9.824219 3.789062 Z M 3.53125 5.199219 C 3.460938 5.199219 3.402344 5.257812 3.402344 5.328125 L 3.402344 6.101562 C 3.402344 6.171875 3.460938 6.230469 3.53125 6.230469 L 6.484375 6.230469 C 6.558594 6.230469 6.613281 6.171875 6.613281 6.101562 L 6.613281 5.328125 C 6.613281 5.257812 6.558594 5.199219 6.484375 5.199219 Z M 5.84375 12.457031 L 2.117188 12.457031 L 2.117188 1.15625 L 11.109375 1.15625 L 11.109375 6.679688 C 11.109375 6.75 11.167969 6.808594 11.238281 6.808594 L 12.136719 6.808594 C 12.210938 6.808594 12.265625 6.75 12.265625 6.679688 L 12.265625 0.515625 C 12.265625 0.230469 12.035156 0 11.753906 0 L 1.476562 0 C 1.191406 0 0.960938 0.230469 0.960938 0.515625 L 0.960938 13.101562 C 0.960938 13.382812 1.191406 13.613281 1.476562 13.613281 L 5.84375 13.613281 C 5.914062 13.613281 5.972656 13.558594 5.972656 13.484375 L 5.972656 12.585938 C 5.972656 12.515625 5.914062 12.457031 5.84375 12.457031 Z M 13 13.285156 L 11.5 11.789062 C 11.859375 11.316406 12.070312 10.722656 12.070312 10.082031 C 12.070312 8.519531 10.804688 7.257812 9.246094 7.257812 C 7.6875 7.257812 6.421875 8.523438 6.421875 10.082031 C 6.421875 11.640625 7.6875 12.90625 9.246094 12.90625 C 9.820312 12.90625 10.355469 12.734375 10.800781 12.441406 L 12.320312 13.960938 C 12.34375 13.984375 12.378906 14 12.410156 14 C 12.445312 14 12.476562 13.984375 12.5 13.960938 L 13 13.464844 C 13.046875 13.414062 13.046875 13.335938 13 13.285156 Z M 9.246094 11.882812 C 8.253906 11.882812 7.449219 11.078125 7.449219 10.082031 C 7.449219 9.085938 8.253906 8.28125 9.246094 8.28125 C 10.242188 8.28125 11.046875 9.085938 11.046875 10.082031 C 11.046875 11.078125 10.242188 11.882812 9.246094 11.882812 Z M 9.246094 11.882812 "/>
</g>
</svg>
