<svg width="14" height="14" viewBox="0 0 14 14" fill="none" xmlns="http://www.w3.org/2000/svg">
<path fill-rule="evenodd" clip-rule="evenodd" d="M6.5 12.9795V11.2072H3.82239V10.2072H8.324C8.683 10.2072 9.0273 10.0646 9.28115 9.81076C9.535 9.55691 9.67761 9.21261 9.67761 8.85361C9.67761 8.49461 9.535 8.15032 9.28115 7.89647C9.0273 7.64262 8.683 7.50001 8.324 7.50001H5.67599C5.05178 7.50001 4.45313 7.25204 4.01174 6.81065C3.57036 6.36926 3.32239 5.77062 3.32239 5.1464C3.32239 4.52218 3.57036 3.92354 4.01174 3.48215C4.45313 3.04076 5.05178 2.79279 5.67599 2.79279H6.5V1.02054C3.42023 1.27461 1 3.85467 1 7C1 10.1453 3.42023 12.7254 6.5 12.9795ZM7.5 1.02054V2.79279H9.64801V3.79279H5.67599C5.317 3.79279 4.9727 3.93541 4.71885 4.18926C4.465 4.44311 4.32239 4.7874 4.32239 5.1464C4.32239 5.5054 4.465 5.84969 4.71885 6.10354C4.9727 6.35739 5.317 6.50001 5.67599 6.50001H8.324C8.94822 6.50001 9.54687 6.74797 9.98825 7.18936C10.4296 7.63075 10.6776 8.2294 10.6776 8.85361C10.6776 9.47783 10.4296 10.0765 9.98825 10.5179C9.54687 10.9593 8.94822 11.2072 8.324 11.2072H7.5V12.9795C10.5798 12.7254 13 10.1453 13 7C13 3.85467 10.5798 1.27461 7.5 1.02054ZM14 7C14 10.866 10.866 14 7 14C3.13401 14 0 10.866 0 7C0 3.13401 3.13401 0 7 0C10.866 0 14 3.13401 14 7Z" fill="#0F0B46"/>
</svg>
