<svg width="14" height="14" viewBox="0 0 14 14" fill="none" xmlns="http://www.w3.org/2000/svg">
<path fill-rule="evenodd" clip-rule="evenodd" d="M9.5066 5.22579C10.201 6.1612 10.3596 7.38184 9.95533 8.45109L9.14276 7.63852C9.26407 6.89793 9.03507 6.11661 8.47187 5.55341C7.90867 4.99022 7.12735 4.76121 6.38677 4.88253L5.57419 4.06995C6.64345 3.66569 7.86408 3.82433 8.79949 4.51868L12.6464 0.671742L13.3535 1.37885L9.5066 5.22579ZM6.25666 11.8235L8.66912 8.72174C8.69008 8.6948 8.71037 8.66754 8.73001 8.63998L9.44414 9.35411L6.96927 12.5361L6.35055 13.3316L5.63794 12.619L1.4063 8.38734L0.693695 7.67473L1.48919 7.05602L4.67117 4.58114L5.3853 5.29528C5.35774 5.31491 5.33048 5.33521 5.30354 5.35616L2.2018 7.76863L6.25666 11.8235Z" fill="#1774DE"/>
</svg>
