<svg width="16" height="18" viewBox="0 0 16 18" fill="none" xmlns="http://www.w3.org/2000/svg">
<path fill-rule="evenodd" clip-rule="evenodd" d="M4.17447 0.370117C2.83835 1.26207 2.04717 2.03157 1.57299 2.98073C1.10791 3.91166 0.976521 4.96605 0.835938 6.32683L1.83064 6.42959C1.97422 5.03988 2.09693 4.16952 2.46756 3.42764C2.82909 2.70399 3.45523 2.05261 4.72969 1.20182L4.17447 0.370117ZM3.67047 4.12333C3.98685 3.40956 4.56972 2.82042 5.48864 2.18345L6.05833 3.00531C5.20288 3.59829 4.79292 4.05877 4.58468 4.52857C4.37379 5.00432 4.33687 5.55978 4.38543 6.43157L3.38698 6.48718C3.33718 5.59321 3.35671 4.83115 3.67047 4.12333ZM7.08493 5.87545C7.08493 4.92267 7.85731 4.15028 8.8101 4.15028C9.76289 4.15028 10.5353 4.92267 10.5353 5.87545C10.5353 6.82824 9.76289 7.60063 8.8101 7.60063C7.85731 7.60063 7.08493 6.82824 7.08493 5.87545ZM8.8101 3.00017C7.22213 3.00017 5.93481 4.28748 5.93481 5.87545C5.93481 7.46343 7.22213 8.75074 8.8101 8.75074C10.3981 8.75074 11.6854 7.46343 11.6854 5.87545C11.6854 4.28748 10.3981 3.00017 8.8101 3.00017ZM12.9505 10.4759L15.7108 17.3766H1.90941L4.66969 10.4759H12.9505ZM14.0121 16.2265H3.60817L5.44835 11.626H12.1718L14.0121 16.2265Z" fill="black"/>
</svg>
