<svg width="14" height="15" viewBox="0 0 14 15" fill="none" xmlns="http://www.w3.org/2000/svg">
<path fill-rule="evenodd" clip-rule="evenodd" d="M5.5 4.08667C5.5 3.25824 6.17157 2.58667 7 2.58667C7.82843 2.58667 8.5 3.25824 8.5 4.08667C8.5 4.9151 7.82843 5.58667 7 5.58667C6.17157 5.58667 5.5 4.9151 5.5 4.08667ZM7 1.58667C5.61929 1.58667 4.5 2.70596 4.5 4.08667C4.5 5.46738 5.61929 6.58667 7 6.58667C8.38071 6.58667 9.5 5.46738 9.5 4.08667C9.5 2.70596 8.38071 1.58667 7 1.58667ZM10.6 8.08667L13 14.0867H1L3.4 8.08667H10.6ZM11.523 13.0867H2.47703L4.07703 9.08667H9.92297L11.523 13.0867Z" fill="#0F0B46"/>
<path d="M8 9.5V11M8 11V12.5V13V11ZM6.5 11H9H9.5" stroke="#0F0B46"/>
</svg>
