<svg xmlns="http://www.w3.org/2000/svg" width="13.495" height="16.5" viewBox="0 0 13.495 16.5">
  <g id="ic_advanced_search_2" transform="translate(0.456 2.462)">
    <path id="Path_167" data-name="Path 167" d="M7.535.038a4.56,4.56,0,0,0-4.506,4.6A4.636,4.636,0,0,0,3.474,6.6L.044,10.109l1.883,1.927L5.282,8.6a4.384,4.384,0,0,0,2.253.641,4.561,4.561,0,0,0,4.507-4.6A4.561,4.561,0,0,0,7.535.038ZM1.927,10.8l-.678-.694,2.6-2.661.679.694ZM7.535,8.381A3.7,3.7,0,0,1,3.89,4.64,3.7,3.7,0,0,1,7.535.9a3.7,3.7,0,0,1,3.646,3.74A3.7,3.7,0,0,1,7.535,8.381Z" transform="translate(0.997 2.002)" fill="#1774de"/>
    <rect id="Rectangle_463" data-name="Rectangle 463" width="5" height="5" rx="2.5" transform="translate(2.044 0.038)" fill="#fff"/>
    <g id="Group_342" data-name="Group 342" transform="translate(-3 -2)">
      <line id="Line_182" data-name="Line 182" y2="6" transform="translate(5.544 -0.462)" fill="none" stroke="#1774de" stroke-width="1"/>
      <line id="Line_183" data-name="Line 183" x1="6" transform="translate(2.544 2.538)" fill="none" stroke="#1774de" stroke-width="1"/>
    </g>
  </g>
</svg>
