<svg width="16" height="14" viewBox="0 0 16 14" fill="none" xmlns="http://www.w3.org/2000/svg">
<path d="M3.78125 0H12.2188C13.125 0 13.9375 0.625 14.1562 1.53125L15.9375 8.65625C15.9688 8.8125 16 8.96875 16 9.125V12C16 13.125 15.0938 14 14 14H2C0.875 14 0 13.125 0 12V9.125C0 8.96875 0 8.8125 0.03125 8.65625L1.8125 1.53125C2.0625 0.625 2.84375 0 3.78125 0ZM3.78125 2L2.28125 8H3.875C4.25 8 4.59375 8.21875 4.78125 8.5625L5.21875 9.46875C5.375 9.8125 5.71875 10 6.09375 10H9.875C10.25 10 10.5938 9.8125 10.75 9.46875L11.2188 8.5625C11.375 8.21875 11.7188 8 12.0938 8H13.7188L12.2188 2H3.78125Z" fill="#050041"/>
</svg>
