<svg xmlns="http://www.w3.org/2000/svg" id="ic_roles" width="14" height="14" viewBox="0 0 14 14">
    <defs>
        <style>
            .cls-1{fill:#0f0b46}
        </style>
    </defs>
    <path id="roles" d="M10.78 8.442L8.743 4.9a2.8 2.8 0 1 0-3.633.021L3.08 8.428A2.793 2.793 0 1 0 2.8 14a2.6 2.6 0 0 0 2.7-2.1h3a2.6 2.6 0 0 0 2.7 2.1 2.8 2.8 0 1 0-.42-5.558zM6.916 1.4a1.4 1.4 0 1 1-1.4 1.4 1.4 1.4 0 0 1 1.4-1.4zM2.8 12.6a1.4 1.4 0 1 1 1.4-1.4 1.4 1.4 0 0 1-1.4 1.4zm5.7-2.1h-3a2.632 2.632 0 0 0-1.083-1.582l1.946-3.374a2.66 2.66 0 0 0 1.127-.007L9.485 9a2.5 2.5 0 0 0-.985 1.5zm2.7 2.1a1.4 1.4 0 1 1 1.4-1.4 1.4 1.4 0 0 1-1.4 1.4z" class="cls-1"/>
</svg>
