<svg xmlns="http://www.w3.org/2000/svg" id="ic_tasks" width="14" height="14" viewBox="0 0 14 14">
    <defs>
        <style>
            .cls-1{fill:#0f0b46}
        </style>
    </defs>
    <path id="ic_tasks-2" d="M9.814 4.907a.7.7 0 0 1 0 .987L7.091 8.617a1.044 1.044 0 0 1-1.484 0L4.368 7.378a.7.7 0 0 1 .987-.987l.5.5a.706.706 0 0 0 .994 0l1.978-1.984a.7.7 0 0 1 .987 0zM14 1.4v11.2a1.4 1.4 0 0 1-1.4 1.4H1.4A1.4 1.4 0 0 1 0 12.6V1.4A1.4 1.4 0 0 1 1.4 0h11.2A1.4 1.4 0 0 1 14 1.4zm-1.4.7a.7.7 0 0 0-.7-.7H2.1a.7.7 0 0 0-.7.7v9.8a.7.7 0 0 0 .7.7h9.8a.7.7 0 0 0 .7-.7z" class="cls-1" data-name="ic_tasks"/>
</svg>
