<svg width="14" height="15" viewBox="0 0 14 15" fill="none" xmlns="http://www.w3.org/2000/svg">
<path d="M7 6.32V9.2H9.5L10.5 11.6H12" stroke="#0F0B46"/>
<path d="M8.6 3.92C8.6 4.74424 7.8992 5.44 7 5.44C6.1008 5.44 5.4 4.74424 5.4 3.92C5.4 3.09576 6.1008 2.4 7 2.4C7.8992 2.4 8.6 3.09576 8.6 3.92Z" stroke="#0F0B46" stroke-width="0.8"/>
<mask id="path-3-inside-1" fill="white">
<path d="M9 10.64C9 11.3045 8.79473 11.9542 8.41014 12.5067C8.02556 13.0593 7.47893 13.4899 6.83939 13.7442C6.19985 13.9985 5.49612 14.0651 4.81718 13.9354C4.13825 13.8058 3.51461 13.4858 3.02513 13.0159C2.53564 12.546 2.2023 11.9473 2.06725 11.2955C1.9322 10.6437 2.00152 9.96814 2.26642 9.35418C2.53133 8.74022 2.97993 8.21546 3.55551 7.84626C4.13108 7.47706 4.80777 7.28 5.5 7.28L5.5 8.27232C5.01221 8.27232 4.53536 8.41118 4.12978 8.67134C3.72419 8.93151 3.40807 9.30129 3.2214 9.73393C3.03473 10.1666 2.98589 10.6426 3.08105 11.1019C3.17622 11.5612 3.41111 11.9831 3.75604 12.3142C4.10096 12.6453 4.54042 12.8708 5.01884 12.9622C5.49726 13.0535 5.99316 13.0067 6.44383 12.8275C6.89449 12.6482 7.27968 12.3448 7.55068 11.9554C7.82169 11.566 7.96634 11.1083 7.96634 10.64H9Z"/>
</mask>
<path d="M9 10.64C9 11.3045 8.79473 11.9542 8.41014 12.5067C8.02556 13.0593 7.47893 13.4899 6.83939 13.7442C6.19985 13.9985 5.49612 14.0651 4.81718 13.9354C4.13825 13.8058 3.51461 13.4858 3.02513 13.0159C2.53564 12.546 2.2023 11.9473 2.06725 11.2955C1.9322 10.6437 2.00152 9.96814 2.26642 9.35418C2.53133 8.74022 2.97993 8.21546 3.55551 7.84626C4.13108 7.47706 4.80777 7.28 5.5 7.28L5.5 8.27232C5.01221 8.27232 4.53536 8.41118 4.12978 8.67134C3.72419 8.93151 3.40807 9.30129 3.2214 9.73393C3.03473 10.1666 2.98589 10.6426 3.08105 11.1019C3.17622 11.5612 3.41111 11.9831 3.75604 12.3142C4.10096 12.6453 4.54042 12.8708 5.01884 12.9622C5.49726 13.0535 5.99316 13.0067 6.44383 12.8275C6.89449 12.6482 7.27968 12.3448 7.55068 11.9554C7.82169 11.566 7.96634 11.1083 7.96634 10.64H9Z" stroke="#0F0B46" stroke-width="2" mask="url(#path-3-inside-1)"/>
</svg>
