<svg width="16" height="15" viewBox="0 0 16 15" fill="none" xmlns="http://www.w3.org/2000/svg">
<g clip-path="url(#clip0)">
<path fill-rule="evenodd" clip-rule="evenodd" d="M4.77084 4.08713C4.77084 3.2587 5.44241 2.58713 6.27084 2.58713C7.09926 2.58713 7.77084 3.2587 7.77084 4.08713C7.77084 4.91556 7.09926 5.58713 6.27084 5.58713C5.44241 5.58713 4.77084 4.91556 4.77084 4.08713ZM6.27084 1.58713C4.89012 1.58713 3.77084 2.70642 3.77084 4.08713C3.77084 5.46784 4.89012 6.58713 6.27084 6.58713C7.65155 6.58713 8.77084 5.46784 8.77084 4.08713C8.77084 2.70642 7.65155 1.58713 6.27084 1.58713ZM14.8464 5.16491C14.7945 5.11538 14.7306 5.0738 14.657 5.04467C14.5834 5.01552 14.503 5 14.4208 5C14.3386 5 14.2582 5.01552 14.1845 5.04467C14.111 5.0738 14.047 5.11538 13.9952 5.16491L13.6907 5.45577C13.3042 5.82506 12.6956 5.82506 12.3091 5.45577L12.0049 5.16507C11.8994 5.06431 11.747 5.00015 11.5791 5.00015C11.4112 5.00015 11.2588 5.06431 11.1533 5.16507C11.0494 5.26436 11 5.38903 11 5.50885C11 5.62868 11.0494 5.75335 11.1533 5.85263L12.9999 7.61694L14.8465 5.85263C14.8983 5.80321 14.9369 5.74686 14.9623 5.68836C14.9876 5.62999 15 5.56913 15 5.50885C15 5.44857 14.9876 5.38772 14.9623 5.32934C14.9369 5.27085 14.8981 5.21433 14.8464 5.16491ZM12.9999 9L10.4625 6.57567C10.1664 6.29273 10 5.90899 10 5.50885C10 5.10872 10.1664 4.72497 10.4625 4.44204C10.7586 4.1591 11.1603 4.00015 11.5791 4.00015C11.9979 4.00015 12.3995 4.1591 12.6957 4.44204L12.9999 4.73274L13.3042 4.44204C13.4508 4.3019 13.6249 4.19073 13.8164 4.11488C14.008 4.03904 14.2134 4 14.4208 4C14.6281 4 14.8335 4.03904 15.0251 4.11488C15.2167 4.19073 15.3907 4.3019 15.5373 4.44204C15.684 4.58211 15.8004 4.74842 15.8798 4.93147C15.9591 5.11452 16 5.31071 16 5.50885C16 5.70699 15.9591 5.90319 15.8798 6.08624C15.8004 6.26928 15.684 6.4356 15.5373 6.57567L12.9999 9ZM2.67084 8.08713L0.270836 14.0871H12.2708L9.87084 8.08713H2.67084ZM3.34787 9.08713L1.74787 13.0871H10.7938L9.1938 9.08713H3.34787Z" fill="#0F0B46"/>
</g>
<defs>
<clipPath id="clip0">
<rect width="16" height="14" fill="white" transform="translate(0 0.5)"/>
</clipPath>
</defs>
</svg>
