<svg class="svg-icon" style="width: 1em; height: 1em;vertical-align: middle;fill: currentColor;overflow: hidden;" viewBox="0 0 1024 1024" version="1.1" xmlns="http://www.w3.org/2000/svg"><path d="M511.57888 356.416a41.216 41.216 0 0 0-41.472 40.96v204.8c0 22.592 18.56 40.96 41.472 40.96a41.216 41.216 0 0 0 41.472-40.96v-204.8c0-22.592-18.56-40.96-41.472-40.96m0 368.64a41.216 41.216 0 0 0-41.472 40.96c0 22.592 18.56 40.96 41.472 40.96a41.216 41.216 0 0 0 41.472-40.96c0-22.592-18.56-40.96-41.472-40.96" fill="#000000" /><path d="M760.41088 878.08H97.37088L511.51488 166.656l414.208 711.424H760.34688z m252.16-15.36L568.41088 100.032C555.29088 77.44 534.61888 64.512 511.57888 64.512S467.86688 77.44 454.74688 99.968L10.52288 862.72c-13.056 22.464-14.016 46.72-2.56 66.304 11.584 19.648 33.28 30.912 59.456 30.912h888.32c26.176 0 47.808-11.264 59.328-30.912 11.52-19.648 10.624-43.776-2.496-66.304z" fill="#000000" /></svg>