<svg width="16" height="14" viewBox="0 0 16 14" fill="none" xmlns="http://www.w3.org/2000/svg">
<path fill-rule="evenodd" clip-rule="evenodd" d="M4.77083 3.58713C4.77083 2.7587 5.4424 2.08713 6.27083 2.08713C7.09926 2.08713 7.77083 2.7587 7.77083 3.58713C7.77083 4.41556 7.09926 5.08713 6.27083 5.08713C5.4424 5.08713 4.77083 4.41556 4.77083 3.58713ZM6.27083 1.08713C4.89012 1.08713 3.77083 2.20642 3.77083 3.58713C3.77083 4.96784 4.89012 6.08713 6.27083 6.08713C7.65154 6.08713 8.77083 4.96784 8.77083 3.58713C8.77083 2.20642 7.65154 1.08713 6.27083 1.08713ZM15.5254 3.30383L14.8183 2.59673L14.259 3.15602C14.0518 3.01588 13.82 2.90936 13.5714 2.84429V2.02109H12.5714V2.81186C12.3183 2.86068 12.0802 2.95194 11.865 3.07794L11.2827 2.4957L10.5756 3.20281L11.1349 3.76212C10.9948 3.96931 10.8883 4.2011 10.8232 4.44966H9.99999V5.44966H10.7908C10.8492 5.75247 10.9683 6.03367 11.1349 6.28007L10.5756 6.83937L11.2827 7.54648L11.865 6.96424C12.0802 7.09024 12.3183 7.1815 12.5714 7.23032V8.02109H13.5714V7.19789C13.82 7.13282 14.0518 7.0263 14.259 6.88616L14.8183 7.44544L15.5254 6.73833L14.9432 6.15612C15.0692 5.94088 15.1604 5.70282 15.2092 5.44965H16V4.44965L15.1768 4.44965C15.1244 4.24956 15.0452 4.06033 14.9432 3.88606L15.5254 3.30383ZM13 3.77109C13.6904 3.77109 14.25 4.33073 14.25 5.02109C14.25 5.71144 13.6904 6.27109 13 6.27109C12.3096 6.27109 11.75 5.71144 11.75 5.02109C11.75 4.33073 12.3096 3.77109 13 3.77109ZM2.67083 7.58713L0.270828 13.5871H12.2708L9.87083 7.58713H2.67083ZM3.34786 8.58713L1.74786 12.5871H10.7938L9.1938 8.58713H3.34786Z" fill="#0F0B46"/>
</svg>
