<svg width="14" height="15" viewBox="0 0 14 15" fill="none" xmlns="http://www.w3.org/2000/svg">
<g clip-path="url(#clip0)">
<path fill-rule="evenodd" clip-rule="evenodd" d="M2 13.5V1.5H12V13.5H10V12.5V11.5H9H5H4V12.5V13.5H2ZM5 13.5H7H9V12.5H5V13.5ZM4 14.5H2H1V13.5V1.5V0.5H2H12H13V1.5V13.5V14.5H12H10H9H7H5H4ZM6 3H4V4H6V3ZM4 6H6V7H4V6ZM10 3H8V4H10V3ZM8 6H10V7H8V6Z" fill="#0F0B46"/>
</g>
<defs>
<clipPath id="clip0">
<rect width="14" height="14" fill="white" transform="translate(0 0.5)"/>
</clipPath>
</defs>
</svg>
