<svg width="15" height="14" viewBox="0 0 15 14" fill="none" xmlns="http://www.w3.org/2000/svg">
<path fill-rule="evenodd" clip-rule="evenodd" d="M11 3.38626H6.5V4.13625H7.25V5.13625H5.375C5.27554 5.13625 5.18016 5.17576 5.10984 5.24609C5.03951 5.31642 5 5.4118 5 5.51125C5 5.61071 5.03951 5.70609 5.10984 5.77642C5.18016 5.84675 5.27554 5.88625 5.375 5.88625H6.625C6.98967 5.88625 7.33941 6.03112 7.59727 6.28898C7.85513 6.54685 8 6.89658 8 7.26125C8 7.62593 7.85513 7.97566 7.59727 8.23353C7.33941 8.49139 6.98967 8.63626 6.625 8.63626H6.5V9.38626H11V3.38626ZM1 3.38626H5.5V4.13625H5.375C5.01033 4.13625 4.66059 4.28112 4.40273 4.53898C4.14487 4.79684 4 5.14658 4 5.51125C4 5.87593 4.14487 6.22566 4.40273 6.48353C4.66059 6.74139 5.01033 6.88625 5.375 6.88625H6.625C6.72446 6.88625 6.81984 6.92576 6.89017 6.99609C6.96049 7.06642 7 7.1618 7 7.26125C7 7.36071 6.96049 7.45609 6.89017 7.52642C6.81984 7.59675 6.72446 7.63625 6.625 7.63626H4.5V8.63626H5.5V9.38626H1V3.38626ZM0 2.38626V10.3863H2.01136L2.01087 10.3893L13.3076 12.1861L14.6101 3.99656L12 3.58141V2.38626H0ZM12 4.59398V10.3863H8.35795L12.4771 11.0414L13.4655 4.82706L12 4.59398Z" fill="#0F0B46"/>
</svg>
