<svg width="15" height="15" viewBox="0 0 15 15" fill="none" xmlns="http://www.w3.org/2000/svg">
<path fill-rule="evenodd" clip-rule="evenodd" d="M11.5 0.5H0.5V13.5H5V12.5H1.5V1.5H10.5V4H11.5V0.5ZM9 4V3L3 3V4L9 4ZM9 5V6L3 6V5L9 5ZM6 8V7H3V8H6ZM11 13C12.6569 13 14 11.6569 14 10C14 8.34315 12.6569 7 11 7C9.34315 7 8 8.34315 8 10C8 11.6569 9.34315 13 11 13ZM15 10C15 12.2091 13.2091 14 11 14C8.79086 14 7 12.2091 7 10C7 7.79086 8.79086 6 11 6C13.2091 6 15 7.79086 15 10ZM12.4921 8.2383L10.4375 10.2929L9.70513 9.56052L8.99803 10.2676L10.4375 11.7071L13.1992 8.94541L12.4921 8.2383Z" fill="#0F0B46"/>
</svg>
