<svg width="16" height="16" viewBox="0 0 16 16" fill="none" xmlns="http://www.w3.org/2000/svg">
<path d="M4.87695 8.24209C4.92539 8.29053 5.00508 8.29053 5.05352 8.24209L6.64414 6.65147L7.98945 7.99834C8.03789 8.04678 8.11758 8.04678 8.16602 7.99834L11.702 4.45928C11.7504 4.41084 11.7504 4.33115 11.702 4.28272L11.127 3.70771C11.0785 3.65928 10.9988 3.65928 10.9504 3.70771L8.07852 6.58271L6.7332 5.23584C6.68477 5.1874 6.60508 5.1874 6.55664 5.23584L4.30195 7.49053C4.25352 7.53897 4.25352 7.61865 4.30195 7.66709L4.87695 8.24209Z" fill="#0F0B46"/>
<path d="M14.4717 1.63862H8.59434V0.519742C8.59434 0.44282 8.53491 0.379883 8.46226 0.379883H7.53774C7.46509 0.379883 7.40566 0.44282 7.40566 0.519742V1.63862H1.5283C1.23608 1.63862 1 1.88862 1 2.19806V11.2889C1 11.5984 1.23608 11.8484 1.5283 11.8484H7.41226V12.4078L4.69151 14.2977C4.63042 14.3396 4.61391 14.4253 4.65354 14.49L5.15377 15.3151V15.3169C5.1934 15.3816 5.27594 15.3991 5.33703 15.3571L8 13.5075L10.663 15.3571C10.7241 15.3991 10.8066 15.3816 10.8462 15.3169V15.3151L11.3465 14.49C11.3861 14.4253 11.3679 14.3396 11.3085 14.2977L8.59434 12.4131V11.8484H14.4717C14.7639 11.8484 15 11.5984 15 11.2889V2.19806C15 1.88862 14.7639 1.63862 14.4717 1.63862ZM13.8113 10.5896H2.18868V2.89736H13.8113V10.5896Z" fill="#0F0B46"/>
</svg>
