<svg width="14" height="14" viewBox="0 0 14 14" fill="none" xmlns="http://www.w3.org/2000/svg">
<path fill-rule="evenodd" clip-rule="evenodd" d="M9.78106 1.97319C8.69004 1.37006 7.43255 1.13784 6.19807 1.31153C4.96359 1.48521 3.8187 2.05569 2.93645 2.93645L1.5 4.3729V2.33334H0.5L0.5 5.57981C0.5 5.57994 0.5 5.58006 0.5 5.58019L0.5 6.33334H4.5V5.33334H1.95377L3.64333 3.64378C4.37213 2.91624 5.31764 2.44525 6.33739 2.30177C7.35718 2.1583 8.39597 2.35013 9.29725 2.84837C10.1985 3.3466 10.9135 4.12426 11.3344 5.06415C11.7552 6.00405 11.8593 7.05527 11.6308 8.05943C11.4023 9.06359 10.8536 9.96628 10.0674 10.6315C9.28129 11.2967 8.30024 11.6884 7.27211 11.7476C6.24398 11.8068 5.22447 11.5302 4.36719 10.9596C3.50991 10.3889 2.8613 9.55516 2.51909 8.58385L1.57592 8.91615C1.99017 10.0919 2.77532 11.1013 3.81309 11.792C4.85085 12.4828 6.08499 12.8176 7.32957 12.7459C8.57414 12.6743 9.76173 12.2001 10.7134 11.3949C11.665 10.5896 12.3292 9.49688 12.6058 8.28132C12.8825 7.06576 12.7565 5.79323 12.247 4.65546C11.7375 3.51769 10.8721 2.57632 9.78106 1.97319Z" fill="#1774de"/>
</svg>
