<svg width="14" height="14" viewBox="0 0 14 14" fill="none" xmlns="http://www.w3.org/2000/svg">
<path fill-rule="evenodd" clip-rule="evenodd" d="M4.5 0H4V0.5V3H3H2V4V13V14H3H3.47703H10.523H11H12V13V4V3H11H10V0.5V0H9.5H4.5ZM10.523 13H3.47703L4.17414 11.2572C4.47787 10.4979 5.21329 10 6.0311 10H7.9689C8.78671 10 9.52213 10.4979 9.82585 11.2572L10.523 13ZM10.7543 10.8858L11 11.5V4H3V11.5L3.24567 10.8858C3.70126 9.74685 4.80438 9 6.0311 9H7.9689C9.19561 9 10.2987 9.74685 10.7543 10.8858ZM9 3V1H5V3H9ZM5.83333 6.66667C5.83333 6.02233 6.35567 5.5 7 5.5C7.64433 5.5 8.16667 6.02233 8.16667 6.66667C8.16667 7.311 7.64433 7.83333 7 7.83333C6.35567 7.83333 5.83333 7.311 5.83333 6.66667ZM7 4.5C5.80338 4.5 4.83333 5.47005 4.83333 6.66667C4.83333 7.86328 5.80338 8.83333 7 8.83333C8.19662 8.83333 9.16667 7.86328 9.16667 6.66667C9.16667 5.47005 8.19662 4.5 7 4.5Z" fill="#0F0B46"/>
</svg>
