<svg width="14" height="15" viewBox="0 0 14 15" fill="none" xmlns="http://www.w3.org/2000/svg">
<path fill-rule="evenodd" clip-rule="evenodd" d="M7.5 1H6.5V2.52469C5.49439 2.62453 4.57642 3.02232 3.83563 3.62853L2.75736 2.55025L2.05025 3.25736L3.12853 4.33564C2.52232 5.07642 2.12453 5.99439 2.02469 7H0.5L0.5 8H2.02469C2.12453 9.00561 2.52232 9.92358 3.12853 10.6644L2.05026 11.7426L2.75736 12.4498L3.83564 11.3715C4.57643 11.9777 5.49439 12.3755 6.5 12.4753V14H7.5V12.4753C8.50561 12.3755 9.42357 11.9777 10.1644 11.3715L11.2426 12.4497L11.9497 11.7426L10.8715 10.6644C11.4777 9.92358 11.8755 9.00561 11.9753 8H13.5V7H11.9753C11.8755 5.99439 11.4777 5.07643 10.8715 4.33564L11.9497 3.25736L11.2426 2.55026L10.1644 3.62853C9.42358 3.02232 8.50561 2.62453 7.5 2.52469V1ZM7 11.5C9.20914 11.5 11 9.70914 11 7.5C11 5.29086 9.20914 3.5 7 3.5C4.79086 3.5 3 5.29086 3 7.5C3 9.70914 4.79086 11.5 7 11.5Z" fill="#0F0B46"/>
</svg>
