<svg width="18" height="15" viewBox="0 0 18 15" fill="none" xmlns="http://www.w3.org/2000/svg">
<path fill-rule="evenodd" clip-rule="evenodd" d="M8.58998 1.70605V0.737305H9.58998V1.70605H14.5265C14.5272 1.70605 14.5279 1.70605 14.5286 1.70605H14.5822V1.70904C14.7572 1.72825 14.9113 1.83885 14.9843 2.00276L17.578 7.83088C17.6041 7.88945 17.618 7.95035 17.6208 8.01074H17.6212C17.6212 8.01446 17.6212 8.01818 17.6212 8.0219C17.6215 8.03311 17.6214 8.04429 17.6209 8.05543C17.6159 8.38169 17.5561 8.70461 17.4443 9.01074C17.4301 9.04941 17.4152 9.0878 17.3994 9.12591C17.253 9.47946 17.0383 9.8007 16.7677 10.0713C16.4971 10.3419 16.1759 10.5565 15.8223 10.703C15.4688 10.8494 15.0898 10.9248 14.7072 10.9248C14.3245 10.9248 13.9456 10.8494 13.592 10.703C13.2385 10.5565 12.9172 10.3419 12.6466 10.0713C12.376 9.8007 12.1614 9.47946 12.0149 9.12591C11.9991 9.0878 11.9842 9.04941 11.9701 9.01074C11.8583 8.70481 11.7985 8.38212 11.7935 8.05609C11.7929 8.04465 11.7928 8.03316 11.7931 8.02165C11.7931 8.01801 11.7931 8.01438 11.7931 8.01074H11.7935C11.796 7.95881 11.8066 7.90639 11.8262 7.85519L13.8003 2.70605H9.58998L9.58998 13.9248H12.09V14.9248H6.08998V13.9248H8.58998L8.58998 2.70605H4.43009L6.71085 7.83088C6.73691 7.88945 6.75081 7.95035 6.75363 8.01074H6.75404L6.75402 8.02186C6.75429 8.03309 6.75418 8.04431 6.7537 8.05548C6.74869 8.38172 6.68893 8.70462 6.57709 9.01074C6.56296 9.04941 6.548 9.0878 6.53222 9.12591C6.38578 9.47946 6.17113 9.8007 5.90053 10.0713C5.62994 10.3419 5.30869 10.5565 4.95514 10.703C4.60159 10.8494 4.22266 10.9248 3.83998 10.9248C3.4573 10.9248 3.07837 10.8494 2.72482 10.703C2.37126 10.5565 2.05002 10.3419 1.77943 10.0713C1.50883 9.8007 1.29418 9.47946 1.14774 9.12591C1.13195 9.0878 1.117 9.04941 1.10287 9.01074C0.991098 8.70481 0.931341 8.38212 0.926269 8.05608C0.925762 8.04465 0.925649 8.03317 0.925937 8.02166L0.925916 8.01074H0.92633C0.928775 7.95881 0.939424 7.90639 0.95905 7.85519L3.19342 2.02707C3.25989 1.85371 3.4162 1.73279 3.59779 1.70997V1.70605H3.65933H3.66141H8.58998ZM12.8376 8.01074H14.7072H16.5635L14.5619 3.51308L12.8376 8.01074ZM3.69469 3.51308L5.69633 8.01074H3.83998H1.97039L3.69469 3.51308ZM5.19343 9.36419C5.30012 9.25749 5.39357 9.13881 5.47204 9.01074H3.83998H2.20791C2.28638 9.13881 2.37984 9.25749 2.48653 9.36419C2.66427 9.54193 2.87527 9.68291 3.1075 9.77911C3.33972 9.8753 3.58862 9.9248 3.83998 9.9248C4.09134 9.9248 4.34023 9.8753 4.57246 9.77911C4.80468 9.68291 5.01569 9.54193 5.19343 9.36419ZM16.3392 9.01074C16.2608 9.13881 16.1673 9.25749 16.0606 9.36419C15.8829 9.54193 15.6719 9.68291 15.4396 9.77911C15.2074 9.8753 14.9585 9.9248 14.7072 9.9248C14.4558 9.9248 14.2069 9.8753 13.9747 9.77911C13.7425 9.68291 13.5315 9.54193 13.3537 9.36419C13.247 9.25749 13.1536 9.13881 13.0751 9.01074H14.7072H16.3392Z" fill="black"/>
</svg>
