<svg width="15" height="15" viewBox="0 0 15 15" fill="none" xmlns="http://www.w3.org/2000/svg">
<path fill-rule="evenodd" clip-rule="evenodd" d="M10.4791 2.11423C9.3102 1.46802 7.96289 1.21921 6.64023 1.40531C5.31757 1.5914 4.09091 2.20262 3.14564 3.1463L1.60658 4.68535V2.50011H0.535156V5.97847C0.535156 5.97861 0.535156 5.97874 0.535156 5.97887V6.78582H4.82087V5.71439H2.09277L3.90301 3.90415C4.68387 3.12464 5.69691 2.62001 6.7895 2.46628C7.88214 2.31256 8.99512 2.5181 9.96078 3.05192C10.9264 3.58574 11.6925 4.41895 12.1434 5.42597C12.5943 6.43301 12.7058 7.55932 12.461 8.6352C12.2162 9.71109 11.6283 10.6783 10.7859 11.391C9.94368 12.1037 8.89256 12.5234 7.79099 12.5868C6.68942 12.6502 5.59709 12.3539 4.67857 11.7425C3.76006 11.1311 3.06512 10.2378 2.69847 9.19708L1.68793 9.55312C2.13177 10.8128 2.973 11.8943 4.0849 12.6344C5.19678 13.3745 6.51907 13.7332 7.85255 13.6564C9.18602 13.5797 10.4584 13.0716 11.4781 12.2089C12.4977 11.3461 13.2093 10.1753 13.5057 8.87294C13.8021 7.57056 13.6671 6.20713 13.1212 4.98809C12.5753 3.76905 11.6481 2.76044 10.4791 2.11423Z" fill="#1774de"/>
<path d="M7 5.5V8.5L8 9.25L9 10" stroke="#1774de"/>
</svg>
