<svg width="12" height="11" viewBox="0 0 12 11" fill="none" xmlns="http://www.w3.org/2000/svg">
<path d="M1.875 1.375V5.125H4.125V1.375H1.875ZM0.75 1.375C0.75 0.765625 1.24219 0.25 1.875 0.25H4.125C4.73438 0.25 5.25 0.765625 5.25 1.375V5.125C5.25 5.75781 4.73438 6.25 4.125 6.25H1.875C1.24219 6.25 0.75 5.75781 0.75 5.125V1.375ZM7.875 5.875V9.625H10.125V5.875H7.875ZM6.75 5.875C6.75 5.26562 7.24219 4.75 7.875 4.75H10.125C10.7344 4.75 11.25 5.26562 11.25 5.875V9.625C11.25 10.2578 10.7344 10.75 10.125 10.75H7.875C7.24219 10.75 6.75 10.2578 6.75 9.625V5.875ZM4.125 8.125H1.875V9.625H4.125V8.125ZM1.875 7H4.125C4.73438 7 5.25 7.51562 5.25 8.125V9.625C5.25 10.2578 4.73438 10.75 4.125 10.75H1.875C1.24219 10.75 0.75 10.2578 0.75 9.625V8.125C0.75 7.51562 1.24219 7 1.875 7ZM7.875 1.375V2.875H10.125V1.375H7.875ZM6.75 1.375C6.75 0.765625 7.24219 0.25 7.875 0.25H10.125C10.7344 0.25 11.25 0.765625 11.25 1.375V2.875C11.25 3.50781 10.7344 4 10.125 4H7.875C7.24219 4 6.75 3.50781 6.75 2.875V1.375Z" fill="#050041"/>
</svg>
