<svg width="17" height="19" viewBox="0 0 17 19" fill="none" xmlns="http://www.w3.org/2000/svg">
<path fill-rule="evenodd" clip-rule="evenodd" d="M0.449219 2.53809H0.949219H1.44922V1.91309H1.82422V1.41309V0.913086H1.44922H0.949219H0.449219V1.41309V1.91309V2.53809ZM2.74088 0.913086H5.49089V1.41309V1.91309H2.74088V1.41309V0.913086ZM6.40755 1.41309V0.913086H9.15755V1.41309V1.91309H6.40755V1.41309ZM10.0742 1.41309V0.913086H10.4492H10.9492H11.4492V1.41309V1.91309V2.53809H10.9492H10.4492V1.91309H10.0742V1.41309ZM10.9492 3.62142H11.4492V4.91309H10.4492V3.62142H10.9492ZM2.74089 13.9131H4.73047V12.9131H2.74089V13.4131V13.9131ZM1.82422 13.4131V13.9131H1.44922H0.949219H0.449219V13.4131V12.9131V12.2881H0.949219H1.44922V12.9131H1.82422V13.4131ZM0.949219 11.2048H0.449219V7.95475H0.949219H1.44922V11.2048H0.949219ZM0.949219 6.87142H0.449219V3.62142H0.949219H1.44922V6.87142H0.949219ZM2.91797 3.97559H4.05469V2.97559H2.91797V3.97559ZM4.8125 3.97559H7.08594V2.97559H4.8125V3.97559ZM7.84375 3.97559H8.98047V2.97559H7.84375V3.97559ZM4.05469 5.94434H2.91797V4.94434H4.05469V5.94434ZM2.91797 7.91309H4.05469V6.91309H2.91797V7.91309ZM15.5117 6.53809H6.51172V17.5381H15.5117V6.53809ZM6.51172 5.53809H5.51172V6.53809V17.5381V18.5381H6.51172H15.5117H16.5117V17.5381V6.53809V5.53809H15.5117H6.51172ZM7.98047 7.56934H14.043V8.56934H7.98047V7.56934ZM14.043 9.53809H7.98047V10.5381H14.043V9.53809ZM7.98047 11.5068H11.4492V12.5068H7.98047V11.5068Z" fill="black"/>
</svg>
