<svg width="15" height="15" viewBox="0 0 15 15" fill="none" xmlns="http://www.w3.org/2000/svg">
<g clip-path="url(#clip0)">
<path fill-rule="evenodd" clip-rule="evenodd" d="M4.5 4.08668C4.5 3.25825 5.17157 2.58668 6 2.58668C6.82843 2.58668 7.5 3.25825 7.5 4.08668C7.5 4.9151 6.82843 5.58668 6 5.58668C5.17157 5.58668 4.5 4.9151 4.5 4.08668ZM6 1.58668C4.61929 1.58668 3.5 2.70596 3.5 4.08668C3.5 5.46739 4.61929 6.58668 6 6.58668C7.38071 6.58668 8.5 5.46739 8.5 4.08668C8.5 2.70596 7.38071 1.58668 6 1.58668ZM10.7238 3.12736C10.5108 2.85294 10.2125 2.65722 9.87598 2.57105L10.124 1.6023C10.6757 1.74354 11.1646 2.06436 11.5138 2.51419C11.8629 2.96401 12.0524 3.51724 12.0524 4.08668C12.0524 4.65611 11.8629 5.20934 11.5138 5.65917C11.1646 6.10899 10.6757 6.42981 10.124 6.57105L9.87598 5.6023C10.2125 5.51613 10.5108 5.32041 10.7238 5.04599C10.9368 4.77157 11.0524 4.43406 11.0524 4.08668C11.0524 3.73929 10.9368 3.40178 10.7238 3.12736ZM9.6 8.08668L12 14.0867H0L2.4 8.08668H9.6ZM10.523 13.0867H1.47703L3.07703 9.08668H8.92297L10.523 13.0867ZM14.2499 13.3652L12.2785 8.43674L11.3501 8.80813L13.3215 13.7366L14.2499 13.3652Z" fill="#0F0B46"/>
</g>
<defs>
<clipPath id="clip0">
<rect width="15" height="14" fill="white" transform="translate(0 0.5)"/>
</clipPath>
</defs>
</svg>
