<svg width="14" height="11" viewBox="0 0 14 11" fill="none" xmlns="http://www.w3.org/2000/svg">
<path d="M12.25 1.375H1.75C1.53906 1.375 1.375 1.5625 1.375 1.75V9.25C1.375 9.46094 1.53906 9.625 1.75 9.625H12.25C12.4375 9.625 12.625 9.46094 12.625 9.25V1.75C12.625 1.5625 12.4375 1.375 12.25 1.375ZM1.75 0.25H12.25C13.0703 0.25 13.75 0.929688 13.75 1.75V9.25C13.75 10.0938 13.0703 10.75 12.25 10.75H1.75C0.90625 10.75 0.25 10.0938 0.25 9.25V1.75C0.25 0.929688 0.90625 0.25 1.75 0.25ZM5.125 5.5C4.58594 5.5 4.09375 5.21875 3.8125 4.75C3.55469 4.30469 3.55469 3.71875 3.8125 3.25C4.09375 2.80469 4.58594 2.5 5.125 2.5C5.64062 2.5 6.13281 2.80469 6.41406 3.25C6.67188 3.71875 6.67188 4.30469 6.41406 4.75C6.13281 5.21875 5.64062 5.5 5.125 5.5ZM4.375 6.25H5.875C6.90625 6.25 7.75 7.09375 7.75 8.125C7.75 8.33594 7.5625 8.5 7.375 8.5H2.875C2.66406 8.5 2.5 8.33594 2.5 8.125C2.5 7.09375 3.32031 6.25 4.375 6.25ZM9.0625 2.875H10.9375C11.2422 2.875 11.5 3.13281 11.5 3.4375C11.5 3.76562 11.2422 4 10.9375 4H9.0625C8.73438 4 8.5 3.76562 8.5 3.4375C8.5 3.13281 8.73438 2.875 9.0625 2.875ZM9.0625 5.125H10.9375C11.2422 5.125 11.5 5.38281 11.5 5.6875C11.5 6.01562 11.2422 6.25 10.9375 6.25H9.0625C8.73438 6.25 8.5 6.01562 8.5 5.6875C8.5 5.38281 8.73438 5.125 9.0625 5.125Z" fill="#050041"/>
</svg>
