<svg width="182" height="22" viewBox="0 0 182 22" fill="none" xmlns="http://www.w3.org/2000/svg">
<g id="Frame">
<g id="Layer 1">
<g id="Group">
<g id="Group_2">
<g id="Group_3">
<g id="Group_4">
<path id="Vector" d="M29.5546 13.6245V13.6212L30.3368 14.4017L37.6528 21.6702H37.6725V9.74672H35.8902L35.9197 17.4957L27.8789 9.35156H27.7871V11.8668L29.5546 13.6245Z" fill="#F16522"/>
<path id="Vector_2" d="M27.7871 13.8271V21.2597H29.6006L29.5661 15.5947L27.7871 13.8271Z" fill="#F16522"/>
</g>
<g id="Group_5">
<path id="Vector_3" d="M43.3242 9.74609H46.5855C48.0234 9.74609 49.2138 10.0298 50.1533 10.5971C51.0929 11.1644 51.7782 11.894 52.2095 12.7876C52.639 13.6796 52.8555 14.6306 52.8555 15.639C52.8555 16.7523 52.5948 17.7312 52.075 18.5772C51.5552 19.4233 50.86 20.0742 49.9877 20.53C49.1154 20.9875 48.1661 21.2154 47.1364 21.2154H43.3242V9.74609ZM46.8068 19.4511C47.6266 19.4511 48.3481 19.2987 48.9728 18.9937C49.5975 18.6887 50.0861 18.2411 50.4386 17.6475C50.7912 17.054 50.9666 16.3424 50.9666 15.5127C50.9666 14.6093 50.7748 13.8567 50.3911 13.2517C50.0074 12.6483 49.5188 12.2039 48.9252 11.9203C48.3317 11.6366 47.7201 11.4956 47.0905 11.4956H45.1688V19.4511H46.8068Z" fill="#F16522"/>
<path id="Vector_4" d="M59.5197 9.74609V21.2154H57.6768V9.74609H59.5197Z" fill="#F16522"/>
</g>
</g>
<path id="Vector_5" d="M11.1873 0.464844L0 21.2605H4.24012L13.3418 3.85235L11.1873 0.464844Z" fill="#0E0048"/>
<path id="Vector_6" d="M19.9261 18.5063H15.463L14.2841 21.2592H12.3477L17.77 9.05371H17.888L23.3103 21.2592H21.0542L19.9261 18.5063ZM19.2686 16.8961L17.7355 13.1922L16.1533 16.8961H19.2686Z" fill="#F16522"/>
</g>
<g id="Group_6">
<path id="Vector_7" d="M76.9589 9.65918V21.2433H76.1932V11.9416L71.535 18.4985H71.5022L66.8751 12.0203V21.2416H66.1094V9.65918H66.1258L71.5186 17.3327L76.9425 9.65918H76.9589Z" fill="#0E0048"/>
<path id="Vector_8" d="M89.9462 9.91504V10.6644H83.7401V15.1635H89.3248V15.9129H83.7401V20.4924H90.1692V21.2417H82.958V9.91504H89.9462Z" fill="#0E0048"/>
<path id="Vector_9" d="M99.9334 10.7285C99.4661 10.6006 99.0086 10.5366 98.561 10.5366C97.8166 10.5366 97.2214 10.7203 96.7738 11.0875C96.3262 11.4548 96.1032 11.9254 96.1032 12.4993C96.1032 12.9043 96.2229 13.247 96.4622 13.529C96.7016 13.811 97.0066 14.0455 97.3788 14.2307C97.751 14.4177 98.2298 14.621 98.8151 14.844C99.4529 15.0784 99.9826 15.3178 100.402 15.5621C100.822 15.8064 101.176 16.1393 101.463 16.559C101.75 16.9788 101.894 17.5199 101.894 18.179C101.894 18.8381 101.745 19.3628 101.448 19.8465C101.15 20.3302 100.734 20.7057 100.196 20.9713C99.6579 21.2369 99.0447 21.3698 98.3528 21.3698C97.1509 21.3698 95.9589 20.9812 94.7783 20.2056L95.1456 19.5678C95.5391 19.8662 96.0228 20.1269 96.5967 20.3499C97.1706 20.5729 97.7297 20.6844 98.2724 20.6844C98.7512 20.6844 99.2054 20.5909 99.6366 20.4056C100.068 20.2204 100.419 19.9383 100.689 19.5596C100.96 19.1825 101.096 18.7283 101.096 18.1954C101.096 17.6953 100.971 17.2756 100.72 16.9345C100.47 16.5935 100.156 16.3196 99.7792 16.1131C99.4021 15.9048 98.925 15.6949 98.3511 15.4818C97.7133 15.249 97.187 15.0227 96.7721 14.803C96.3573 14.5849 96.0081 14.2947 95.7277 13.934C95.4457 13.5716 95.3046 13.1207 95.3046 12.578C95.3046 12.0353 95.4407 11.5745 95.7113 11.1662C95.9818 10.7563 96.3606 10.4382 96.8443 10.2087C97.328 9.98078 97.8674 9.86109 98.4642 9.84961C98.9742 9.84961 99.5038 9.91847 100.051 10.0562C100.599 10.1939 101.086 10.371 101.511 10.5825L101.207 11.1892C100.824 11.0088 100.399 10.8547 99.9301 10.7268L99.9334 10.7285Z" fill="#0E0048"/>
<path id="Vector_10" d="M111.596 10.7285C111.129 10.6006 110.672 10.5366 110.224 10.5366C109.48 10.5366 108.884 10.7203 108.437 11.0875C107.989 11.4548 107.766 11.9254 107.766 12.4993C107.766 12.9043 107.886 13.247 108.125 13.529C108.365 13.811 108.67 14.0455 109.042 14.2307C109.414 14.4177 109.893 14.621 110.478 14.844C111.116 15.0784 111.646 15.3178 112.065 15.5621C112.485 15.8064 112.839 16.1393 113.126 16.559C113.413 16.9788 113.557 17.5199 113.557 18.179C113.557 18.8381 113.408 19.3628 113.111 19.8465C112.813 20.3302 112.397 20.7057 111.859 20.9713C111.321 21.2369 110.708 21.3698 110.016 21.3698C108.814 21.3698 107.622 20.9812 106.441 20.2056L106.809 19.5678C107.202 19.8662 107.686 20.1269 108.26 20.3499C108.834 20.5729 109.393 20.6844 109.935 20.6844C110.414 20.6844 110.868 20.5909 111.3 20.4056C111.731 20.2204 112.082 19.9383 112.352 19.5596C112.623 19.1825 112.759 18.7283 112.759 18.1954C112.759 17.6953 112.634 17.2756 112.383 16.9345C112.133 16.5935 111.819 16.3196 111.442 16.1131C111.065 15.9048 110.588 15.6949 110.014 15.4818C109.376 15.249 108.85 15.0227 108.435 14.803C108.02 14.5849 107.671 14.2947 107.391 13.934C107.109 13.5716 106.968 13.1207 106.968 12.578C106.968 12.0353 107.104 11.5745 107.374 11.1662C107.645 10.7563 108.024 10.4382 108.507 10.2087C108.991 9.98078 109.531 9.86109 110.127 9.84961C110.637 9.84961 111.167 9.91847 111.715 10.0562C112.262 10.1939 112.749 10.371 113.174 10.5825L112.87 11.1892C112.487 11.0088 112.062 10.8547 111.593 10.7268L111.596 10.7285Z" fill="#0E0048"/>
<path id="Vector_11" d="M125.158 17.4938H120.163L118.663 21.2437H117.881L122.667 9.42188H122.731L127.517 21.2437H126.64L125.156 17.4938H125.158ZM124.871 16.7593L122.685 11.1911L120.452 16.7593H124.871Z" fill="#0E0048"/>
<path id="Vector_12" d="M139.142 21.1C138.477 21.2804 137.859 21.3705 137.283 21.3705C136.124 21.3705 135.102 21.1213 134.22 20.6212C133.338 20.1211 132.654 19.4407 132.171 18.5782C131.687 17.7174 131.444 16.7549 131.444 15.6908C131.444 14.5627 131.705 13.5511 132.226 12.6509C132.748 11.7524 133.45 11.0506 134.332 10.5456C135.214 10.0406 136.183 9.78809 137.236 9.78809C138.373 9.78809 139.41 10.0652 140.346 10.6177L140.059 11.3195C139.675 11.0965 139.239 10.9145 138.751 10.7768C138.262 10.6391 137.783 10.5702 137.314 10.5702C136.367 10.5702 135.506 10.7915 134.73 11.2326C133.953 11.6737 133.345 12.2803 132.904 13.051C132.463 13.8233 132.241 14.6873 132.241 15.6433C132.241 16.5992 132.451 17.4255 132.871 18.1798C133.291 18.934 133.881 19.5276 134.642 19.9588C135.402 20.39 136.276 20.6048 137.267 20.6048C137.724 20.6048 138.198 20.5491 138.687 20.4376C139.175 20.3261 139.59 20.1752 139.931 19.9834V16.8402H137.378V16.0909H140.713V20.4458C140.33 20.7016 139.807 20.9196 139.141 21.1H139.142Z" fill="#0E0048"/>
<path id="Vector_13" d="M147.159 9.91504V21.2433H146.377V9.91504H147.159Z" fill="#0E0048"/>
<path id="Vector_14" d="M162.668 9.91517V21.514H162.635L153.908 11.686L153.924 21.2435H153.158V9.67578H153.206L161.934 19.5842L161.917 9.91517H162.667H162.668Z" fill="#0E0048"/>
<path id="Vector_15" d="M175.645 21.1C174.98 21.2804 174.362 21.3705 173.786 21.3705C172.627 21.3705 171.605 21.1213 170.723 20.6212C169.841 20.1211 169.157 19.4407 168.674 18.5782C168.19 17.7174 167.947 16.7549 167.947 15.6908C167.947 14.5627 168.208 13.5511 168.729 12.6509C169.251 11.7524 169.953 11.0506 170.835 10.5456C171.717 10.0406 172.686 9.78809 173.738 9.78809C174.876 9.78809 175.913 10.0652 176.849 10.6177L176.562 11.3195C176.178 11.0965 175.742 10.9145 175.254 10.7768C174.765 10.6391 174.286 10.5702 173.817 10.5702C172.869 10.5702 172.009 10.7915 171.233 11.2326C170.456 11.6737 169.848 12.2803 169.407 13.051C168.965 13.8233 168.744 14.6873 168.744 15.6433C168.744 16.5992 168.954 17.4255 169.374 18.1798C169.793 18.9357 170.384 19.5276 171.145 19.9588C171.905 20.39 172.779 20.6048 173.77 20.6048C174.227 20.6048 174.701 20.5491 175.19 20.4376C175.678 20.3261 176.093 20.1752 176.434 19.9834V16.8402H173.881V16.0909H177.216V20.4458C176.832 20.7016 176.309 20.9196 175.644 21.1H175.645Z" fill="#0E0048"/>
</g>
</g>
</g>
</g>
</svg>
