<svg width="12" height="11" viewBox="0 0 12 11" fill="none" xmlns="http://www.w3.org/2000/svg">
<path d="M7.6875 0.25H10.6875C10.9922 0.25 11.25 0.507812 11.25 0.8125V3.8125C11.25 4.14062 10.9922 4.375 10.6875 4.375C10.3594 4.375 10.125 4.14062 10.125 3.8125V2.17188L6.77344 5.5L10.125 8.85156V7.1875C10.125 6.88281 10.3594 6.625 10.6875 6.625C10.9922 6.625 11.25 6.88281 11.25 7.1875V10.1875C11.25 10.5156 10.9922 10.75 10.6875 10.75H7.6875C7.35938 10.75 7.125 10.5156 7.125 10.1875C7.125 9.88281 7.35938 9.625 7.6875 9.625H9.32812L6 6.29688L2.64844 9.625H4.3125C4.61719 9.625 4.875 9.88281 4.875 10.1875C4.875 10.5156 4.61719 10.75 4.3125 10.75H1.3125C0.984375 10.75 0.75 10.5156 0.75 10.1875V7.1875C0.75 6.88281 0.984375 6.625 1.3125 6.625C1.61719 6.625 1.875 6.88281 1.875 7.1875V8.85156L5.20312 5.5L1.875 2.17188V3.8125C1.875 4.14062 1.61719 4.375 1.3125 4.375C0.984375 4.375 0.75 4.14062 0.75 3.8125V0.8125C0.75 0.507812 0.984375 0.25 1.3125 0.25H4.3125C4.61719 0.25 4.875 0.507812 4.875 0.8125C4.875 1.14062 4.61719 1.375 4.3125 1.375H2.64844L6 4.72656L9.32812 1.375H7.6875C7.35938 1.375 7.125 1.14062 7.125 0.8125C7.125 0.507812 7.35938 0.25 7.6875 0.25Z" fill="#080808"/>
</svg>
