<svg width="15" height="15" viewBox="0 0 15 15" fill="none" xmlns="http://www.w3.org/2000/svg">
<g clip-path="url(#clip0_4499_26038)">
<path d="M3.43042 5.25314C3.47829 5.30332 3.50561 5.33293 3.53318 5.36084L5.36759 7.16406C5.5518 7.34495 5.55306 7.47345 5.37084 7.6536C5.22698 7.79524 5.08253 7.93639 4.93749 8.07706C4.75478 8.25451 4.62269 8.25402 4.43622 8.07265C3.76084 7.41258 3.08588 6.75268 2.41133 6.09295L1.12832 4.83972C0.957891 4.67303 0.957891 4.53719 1.13033 4.36829C2.23497 3.28788 3.34069 2.2077 4.4475 1.12778C4.62144 0.958152 4.76982 0.956438 4.94351 1.1246C5.09205 1.2677 5.23951 1.41171 5.38588 1.55662C5.55431 1.72282 5.55356 1.88754 5.38187 2.05546C4.77182 2.65221 4.16136 3.24855 3.55047 3.84448C3.51889 3.87533 3.48882 3.90739 3.43693 3.96051L3.60611 3.96051C5.95023 3.96051 8.29452 3.96124 10.639 3.96271C12.0849 3.9654 13.4504 4.98487 13.8496 6.34433C13.9496 6.68052 14.0003 7.02888 14 7.37897C13.998 8.44617 14 9.51361 14 10.5808C13.9972 12.2208 12.9165 13.5526 11.2771 13.9165C11.0158 13.9715 10.7491 13.9982 10.4818 13.9961C7.50342 14.0015 4.52511 14.0025 1.54689 13.9993C1.26442 13.9993 1.16492 13.9014 1.16467 13.6233C1.16467 13.4319 1.16467 13.2405 1.16467 13.0491C1.16467 12.807 1.26492 12.7064 1.51305 12.7064C2.44325 12.7054 3.37336 12.7054 4.30338 12.7064C6.36411 12.7064 8.42476 12.7064 10.4853 12.7064C11.4941 12.7064 12.3112 12.1204 12.5769 11.2028C12.6255 11.0347 12.6508 10.861 12.6521 10.6863C12.6563 9.50505 12.6669 8.32354 12.6438 7.14252C12.6265 6.24519 11.8167 5.40269 10.9026 5.28227C10.7748 5.26507 10.6459 5.25616 10.5169 5.25559C8.19769 5.25412 5.87847 5.25371 3.55924 5.25436L3.43042 5.25314Z" fill="#FDBA12"/>
</g>
<defs>
<clipPath id="clip0_4499_26038">
<rect width="13" height="13" fill="white" transform="translate(14 1) rotate(90)"/>
</clipPath>
</defs>
</svg>
