<svg width="17" height="16" viewBox="0 0 17 16" fill="none" xmlns="http://www.w3.org/2000/svg">
<path d="M10.5 0H15.5C16.0312 0 16.5 0.46875 16.5 1V6C16.5 6.5625 16.0312 7 15.5 7C14.9375 7 14.5 6.5625 14.5 6V3.4375L8.1875 9.71875C7.8125 10.125 7.15625 10.125 6.78125 9.71875C6.375 9.34375 6.375 8.6875 6.78125 8.3125L13.0625 2H10.5C9.9375 2 9.5 1.5625 9.5 1C9.5 0.46875 9.9375 0 10.5 0ZM3 1H6.5C7.03125 1 7.5 1.46875 7.5 2C7.5 2.5625 7.03125 3 6.5 3H3C2.71875 3 2.5 3.25 2.5 3.5V13.5C2.5 13.7812 2.71875 14 3 14H13C13.25 14 13.5 13.7812 13.5 13.5V10C13.5 9.46875 13.9375 9 14.5 9C15.0312 9 15.5 9.46875 15.5 10V13.5C15.5 14.9062 14.375 16 13 16H3C1.59375 16 0.5 14.9062 0.5 13.5V3.5C0.5 2.125 1.59375 1 3 1Z" fill="#F9F9F9"/>
</svg>
