<svg xmlns="http://www.w3.org/2000/svg" width="15.461" height="13.745" viewBox="0 0 15.461 13.745">
    <path id="prefix__edit-regular_1_" d="M10.8 9.185l.859-.859a.216.216 0 0 1 .368.153v3.9a1.289 1.289 0 0 1-1.288 1.288H1.288A1.289 1.289 0 0 1 0 12.382V2.933a1.289 1.289 0 0 1 1.288-1.288H8.63a.216.216 0 0 1 .153.368l-.859.859a.213.213 0 0 1-.153.062H1.288v9.449h9.449V9.335a.211.211 0 0 1 .063-.15zM15 3.768l-7.047 7.049-2.427.268A1.109 1.109 0 0 1 4.3 9.862l.268-2.427L11.62.386a1.567 1.567 0 0 1 2.22 0L15 1.546a1.572 1.572 0 0 1 0 2.223zm-2.65.832l-1.56-1.56L5.8 8.028l-.2 1.753 1.753-.2zm1.74-2.142L12.93 1.3a.28.28 0 0 0-.4 0l-.829.829 1.56 1.56.829-.829a.286.286 0 0 0 0-.402z" data-name="edit-regular (1)" transform="translate(0 .075)" style="fill:#1774de"/>
</svg>
