<svg width="50" height="51" viewBox="0 0 50 51" fill="none" xmlns="http://www.w3.org/2000/svg">
<path d="M42.7734 0.75H43.75H44.5312H46.875V3.09375V18.3281C48.6328 19.207 50 21.5508 50 24.1875C50 26.9219 48.6328 29.2656 46.875 30.1445V45.2812V47.625H44.5312H43.75H42.7734L42.0898 46.9414L37.793 42.7422C33.1055 38.0547 26.8555 35.3203 20.3125 35.2227V46.0625V50.75H15.625H10.9375H6.25V46.0625V35.125H4.6875H0V30.4375V17.9375V13.25H4.6875H15.625H19.5312C26.3672 13.25 32.9102 10.6133 37.793 5.73047L42.0898 1.43359L42.7734 0.75ZM41.1133 39.4219L42.1875 40.4961V7.97656L41.1133 9.05078C35.5469 14.6172 28.125 17.7422 20.3125 17.9375V30.4375V30.5352C28.125 30.6328 35.5469 33.8555 41.1133 39.4219ZM4.6875 17.9375V30.4375H6.25H10.9375H15.625V17.9375H4.6875ZM10.9375 35.125V46.0625H15.625V35.125H10.9375Z" fill="#141B4D"/>
</svg>
