<svg xmlns="http://www.w3.org/2000/svg" width="16" height="18.286" viewBox="0 0 16 18.286">
    <defs>
        <style>
            .cls-1{fill:#c2c2c2}
        </style>
    </defs>
    <path id="calendar-alt-solid" d="M0 16.571a1.715 1.715 0 0 0 1.714 1.714h12.572A1.715 1.715 0 0 0 16 16.571V6.857H0zm11.429-7a.43.43 0 0 1 .429-.429h1.429a.43.43 0 0 1 .429.429V11a.43.43 0 0 1-.429.429h-1.43a.43.43 0 0 1-.428-.429zm0 4.571a.43.43 0 0 1 .429-.429h1.429a.43.43 0 0 1 .429.429v1.429a.43.43 0 0 1-.429.429h-1.43a.43.43 0 0 1-.429-.429zM6.857 9.571a.43.43 0 0 1 .429-.429h1.428a.43.43 0 0 1 .429.429V11a.43.43 0 0 1-.429.429H7.286A.43.43 0 0 1 6.857 11zm0 4.571a.43.43 0 0 1 .429-.429h1.428a.43.43 0 0 1 .429.429v1.429a.43.43 0 0 1-.429.429H7.286a.43.43 0 0 1-.429-.429zM2.286 9.571a.43.43 0 0 1 .429-.429h1.428a.43.43 0 0 1 .429.429V11a.43.43 0 0 1-.429.429H2.714A.43.43 0 0 1 2.286 11zm0 4.571a.43.43 0 0 1 .429-.429h1.428a.43.43 0 0 1 .429.429v1.429a.43.43 0 0 1-.429.429H2.714a.43.43 0 0 1-.429-.429zm12-11.857h-1.715V.571A.573.573 0 0 0 12 0h-1.143a.573.573 0 0 0-.571.571v1.715H5.714V.571A.573.573 0 0 0 5.143 0H4a.573.573 0 0 0-.571.571v1.715H1.714A1.715 1.715 0 0 0 0 4v1.714h16V4a1.715 1.715 0 0 0-1.714-1.714z" class="cls-1"/>
</svg>
