<svg width="11" height="19" viewBox="0 0 11 19" fill="none" xmlns="http://www.w3.org/2000/svg">
<path d="M6.21875 1.59375V3.35156C7.16797 3.45703 8.04688 3.63281 8.71484 3.77344L9.52344 3.98438L9.13672 5.63672L8.32812 5.42578C7.23828 5.17969 5.65625 4.86328 4.32031 5.00391C3.65234 5.03906 3.125 5.17969 2.73828 5.42578C2.38672 5.67188 2.14062 5.98828 2.03516 6.51562C1.92969 6.90234 2 7.18359 2.10547 7.35938C2.17578 7.57031 2.38672 7.74609 2.70312 7.95703C3.37109 8.37891 4.39062 8.625 5.55078 8.94141L5.65625 8.97656C6.74609 9.25781 7.97656 9.57422 8.92578 10.1367C9.41797 10.418 9.83984 10.8398 10.1211 11.4023C10.4375 11.9648 10.4727 12.6328 10.3672 13.3359C10.1211 14.6016 9.20703 15.4102 8.08203 15.832C7.51953 16.043 6.88672 16.1836 6.21875 16.2188V17.9062V18.75H4.53125V17.9062V16.1836C4.39062 16.1484 4.28516 16.1484 4.17969 16.1133C3.30078 16.0078 1.75391 15.6562 0.804688 15.2344L0.03125 14.8828L0.699219 13.3359L1.47266 13.6875C2.24609 14.0039 3.61719 14.3555 4.39062 14.4609C5.65625 14.6367 6.71094 14.5312 7.48438 14.25C8.22266 13.9688 8.60938 13.5469 8.67969 13.0195C8.78516 12.6328 8.71484 12.3516 8.60938 12.1758C8.53906 11.9648 8.32812 11.7539 8.01172 11.5781C7.34375 11.1562 6.35938 10.875 5.16406 10.5938L5.05859 10.5586C3.96875 10.2773 2.73828 9.96094 1.78906 9.39844C1.33203 9.08203 0.875 8.69531 0.59375 8.13281C0.3125 7.53516 0.242188 6.90234 0.382812 6.19922C0.558594 5.17969 1.08594 4.47656 1.82422 4.01953C2.52734 3.5625 3.37109 3.38672 4.17969 3.31641C4.28516 3.28125 4.39062 3.28125 4.53125 3.28125V1.59375V0.75H6.21875V1.59375Z" fill="#7B7B7B"/>
</svg>
