<svg width="14" height="15" viewBox="0 0 14 15" fill="none" xmlns="http://www.w3.org/2000/svg">
<path d="M7.65625 1.40625V8.81641L10.2539 6.21875L10.7188 5.75391L11.6484 6.65625L11.1836 7.12109L7.46484 10.8398L7 11.3047L6.53516 10.8398L2.81641 7.12109L2.35156 6.65625L3.28125 5.75391L3.74609 6.21875L6.34375 8.81641V1.40625V0.75H7.65625V1.40625ZM3.5 9.0625L4.8125 10.375H1.3125V13.4375H12.6875V10.375H9.16016L10.4727 9.0625H12.6875H14V10.375V13.4375V14.75H12.6875H1.3125H0V13.4375V10.375V9.0625H1.3125H3.5ZM11.8125 11.9062C11.8125 12.2891 11.5117 12.5625 11.1562 12.5625C10.7734 12.5625 10.5 12.2891 10.5 11.9062C10.5 11.5508 10.7734 11.25 11.1562 11.25C11.5117 11.25 11.8125 11.5508 11.8125 11.9062Z" fill="#1774DE"/>
</svg>
