<svg width="14" height="11" viewBox="0 0 14 11" fill="none" xmlns="http://www.w3.org/2000/svg">
<path d="M11.875 4.25C11.1953 4.25 10.5859 3.89844 10.2344 3.3125C9.90625 2.75 9.90625 2.02344 10.2344 1.4375C10.5859 0.875 11.1953 0.5 11.875 0.5C12.5312 0.5 13.1406 0.875 13.4922 1.4375C13.8203 2.02344 13.8203 2.75 13.4922 3.3125C13.1406 3.89844 12.5312 4.25 11.875 4.25ZM12.25 9.5C12.25 10.3438 11.5703 11 10.75 11H1.75C0.90625 11 0.25 10.3438 0.25 9.5V3.5C0.25 2.67969 0.90625 2 1.75 2H9.27344C9.25 2.14062 9.25 2.25781 9.25 2.375C9.25 2.65625 9.27344 2.89062 9.34375 3.125H1.75C1.53906 3.125 1.375 3.3125 1.375 3.5V4.03906L5.40625 7.34375C5.89844 7.74219 6.57812 7.74219 7.07031 7.34375L10.4453 4.57812C10.8438 4.85938 11.3359 5 11.875 5C11.9922 5 12.1094 5 12.25 4.97656V9.5ZM1.375 5.49219V9.5C1.375 9.71094 1.53906 9.875 1.75 9.875H10.75C10.9375 9.875 11.125 9.71094 11.125 9.5V5.49219L7.79688 8.21094C6.88281 8.96094 5.59375 8.96094 4.70312 8.21094L1.375 5.49219Z" fill="#484848"/>
</svg>
