<svg width="17" height="11" viewBox="0 0 17 11" fill="none" xmlns="http://www.w3.org/2000/svg">
<path d="M1.55225 2.45898L6.8335 6.08984L9.57568 4.21094C9.01709 4.82031 8.66162 5.58203 8.50928 6.41992L6.8335 7.5625L1.55225 3.93164V8.78125H8.76318C8.91553 9.23828 9.16943 9.64453 9.47412 10H1.55225H0.333496V8.78125V3.09375V1.46875V0.25H1.55225H12.1147H13.3335V1.46875V2.71289C13.1812 2.71289 13.0542 2.6875 12.9272 2.6875C12.3687 2.6875 11.8354 2.78906 11.353 2.99219L12.1147 2.45898V1.46875H1.55225V2.45898ZM9.271 7.15625C9.271 5.86133 9.95654 4.66797 11.0991 4.00781C12.2163 3.34766 13.6128 3.34766 14.7554 4.00781C15.8726 4.66797 16.5835 5.86133 16.5835 7.15625C16.5835 8.47656 15.8726 9.66992 14.7554 10.3301C13.6128 10.9902 12.2163 10.9902 11.0991 10.3301C9.95654 9.66992 9.271 8.47656 9.271 7.15625ZM14.9077 6.34375L14.3491 5.78516L14.0444 6.06445L12.521 7.61328L11.7847 6.87695L11.5054 6.59766L10.9214 7.15625L11.2007 7.46094L12.2163 8.47656L12.521 8.75586L12.8003 8.47656L14.6284 6.64844L14.9077 6.34375Z" fill="#E2A20C"/>
</svg>
