<svg xmlns="http://www.w3.org/2000/svg" width="12" height="9.6" viewBox="0 0 12 9.6">
  <defs>
    <style>
      .cls-1 {
        fill: #707070;
      }
    </style>
  </defs>
  <path id="eye-slash-regular" class="cls-1" d="M11.877,8.83.665.065A.3.3,0,0,0,.244.112L.056.346A.3.3,0,0,0,.1.768L11.315,9.533a.3.3,0,0,0,.422-.047l.187-.234a.3.3,0,0,0-.047-.422ZM5.555,2.746,8.082,4.721A2.091,2.091,0,0,0,5.555,2.746Zm.87,4.107L3.9,4.877A2.1,2.1,0,0,0,5.99,6.9a2.119,2.119,0,0,0,.435-.046ZM5.99,2.1a5.1,5.1,0,0,1,4.461,2.7,5.354,5.354,0,0,1-.825,1.129l.708.553a6.257,6.257,0,0,0,.992-1.408.607.607,0,0,0,0-.547A6.016,6.016,0,0,0,5.99,1.2a5.788,5.788,0,0,0-1.962.353l.87.68A4.921,4.921,0,0,1,5.99,2.1Zm0,5.4A5.1,5.1,0,0,1,1.529,4.8a5.352,5.352,0,0,1,.826-1.129l-.708-.553A6.255,6.255,0,0,0,.656,4.526a.607.607,0,0,0,0,.547A6.014,6.014,0,0,0,5.99,8.4a5.811,5.811,0,0,0,1.962-.353l-.87-.68A4.931,4.931,0,0,1,5.99,7.5Z" transform="translate(0.01 0.001)"/>
</svg>
