<svg xmlns="http://www.w3.org/2000/svg" width="10.75" height="7.167" viewBox="0 0 10.75 7.167">
  <defs>
    <style>
      .cls-1 {
        fill: #707070;
      }
    </style>
  </defs>
  <path id="eye-regular" class="cls-1" d="M5.376,65.493a2.07,2.07,0,0,0-.583.093,1.034,1.034,0,0,1,.135.5,1.045,1.045,0,0,1-1.045,1.045,1.034,1.034,0,0,1-.5-.135,2.085,2.085,0,1,0,2-1.507Zm5.31,1.818A5.986,5.986,0,0,0,5.376,64a5.987,5.987,0,0,0-5.31,3.311.6.6,0,0,0,0,.545,5.986,5.986,0,0,0,5.31,3.311,5.987,5.987,0,0,0,5.31-3.311.6.6,0,0,0,0-.545Zm-5.31,2.96A5.077,5.077,0,0,1,.935,67.583,5.077,5.077,0,0,1,5.376,64.9a5.077,5.077,0,0,1,4.441,2.687A5.077,5.077,0,0,1,5.376,70.271Z" transform="translate(-0.001 -64)"/>
</svg>
