<svg width="17" height="14" viewBox="0 0 17 14" fill="none" xmlns="http://www.w3.org/2000/svg">
<path d="M3.8418 10.4806C5.07227 11.6818 6.625 12.5314 8.5 12.5314C10.3457 12.5314 11.8984 11.6818 13.1289 10.4806C14.1836 9.4845 14.9453 8.28333 15.3848 7.37512C14.9453 6.49622 14.1836 5.29504 13.1289 4.29895C11.8984 3.09778 10.3457 2.21887 8.5 2.21887C6.625 2.21887 5.07227 3.09778 3.8418 4.29895C2.78711 5.29504 2.02539 6.49622 1.58594 7.37512C2.02539 8.28333 2.78711 9.4845 3.8418 10.4806ZM8.5 13.9376C3.8418 13.9376 0.941406 9.57239 0.0625 7.37512C0.941406 5.20715 3.8418 0.812622 8.5 0.812622C13.1289 0.812622 16.0586 5.20715 16.9375 7.37512C16.0586 9.57239 13.1289 13.9376 8.5 13.9376ZM8.5 9.71887C9.78906 9.71887 10.8438 8.69348 10.8438 7.37512C10.8438 6.08606 9.78906 5.03137 8.5 5.03137C8.32422 5.03137 8.17773 5.06067 8.03125 5.08997L8.5 7.37512L6.18555 6.93567C6.15625 7.08215 6.15625 7.22864 6.15625 7.37512C6.15625 8.69348 7.18164 9.71887 8.5 9.71887ZM4.75 7.37512C4.75 7.14075 4.75 6.87708 4.80859 6.6427C5.10156 5.14856 6.27344 4.00598 7.73828 3.71301C8.00195 3.65442 8.23633 3.62512 8.5 3.62512C10.5508 3.62512 12.25 5.32434 12.25 7.37512C12.25 9.4552 10.5508 11.1251 8.5 11.1251C6.41992 11.1251 4.75 9.4552 4.75 7.37512Z" fill="#141B4D"/>
</svg>
