<svg width="14" height="11" viewBox="0 0 14 11" fill="none" xmlns="http://www.w3.org/2000/svg">
<path d="M12.25 7.375C12.4375 7.375 12.625 7.21094 12.625 7V3.25C12.625 3.0625 12.4375 2.875 12.25 2.875H9.48438C8.78125 2.875 8.125 2.61719 7.63281 2.125L7 1.49219C6.92969 1.42188 6.83594 1.375 6.74219 1.375H4C3.78906 1.375 3.625 1.5625 3.625 1.75V7C3.625 7.21094 3.78906 7.375 4 7.375H12.25ZM4 8.5C3.15625 8.5 2.5 7.84375 2.5 7V1.75C2.5 0.929688 3.15625 0.25 4 0.25H6.74219C7.14062 0.25 7.51562 0.414062 7.79688 0.695312L8.42969 1.32812C8.71094 1.60938 9.08594 1.75 9.48438 1.75H12.25C13.0703 1.75 13.75 2.42969 13.75 3.25V7C13.75 7.84375 13.0703 8.5 12.25 8.5H4ZM1.375 2.3125V7.5625C1.375 8.71094 2.28906 9.625 3.4375 9.625H10.9375C11.2422 9.625 11.5 9.88281 11.5 10.1875C11.5 10.5156 11.2422 10.75 10.9375 10.75H3.4375C1.65625 10.75 0.25 9.34375 0.25 7.5625V2.3125C0.25 2.00781 0.484375 1.75 0.8125 1.75C1.11719 1.75 1.375 2.00781 1.375 2.3125Z" fill="#050041"/>
</svg>
