<svg width="12" height="13" viewBox="0 0 12 13" fill="none" xmlns="http://www.w3.org/2000/svg">
<path d="M6 0.5C6.39844 0.5 6.77344 0.546875 7.14844 0.617188C7.33594 0.664062 7.66406 0.757812 7.85156 1.08594C7.89844 1.17969 7.92188 1.27344 7.94531 1.36719L8.17969 2.28125C8.20312 2.39844 8.4375 2.53906 8.57812 2.49219L9.46875 2.23438C9.5625 2.21094 9.65625 2.1875 9.75 2.1875C10.125 2.1875 10.3828 2.42188 10.5 2.5625C11.0156 3.14844 11.4141 3.82812 11.6719 4.57812C11.7422 4.76562 11.8125 5.09375 11.6016 5.39844C11.5547 5.49219 11.4844 5.5625 11.4141 5.63281L10.7578 6.28906C10.6406 6.38281 10.6406 6.64062 10.7578 6.73438L11.4141 7.39062C11.4844 7.46094 11.5547 7.53125 11.6016 7.625C11.7891 7.92969 11.7188 8.25781 11.6719 8.44531C11.4141 9.19531 11.0156 9.875 10.5 10.4609C10.3828 10.6016 10.125 10.8359 9.75 10.8359C9.65625 10.8359 9.5625 10.8125 9.46875 10.7891L8.57812 10.5078C8.4375 10.4844 8.20312 10.6016 8.17969 10.7422L7.94531 11.6562C7.92188 11.75 7.89844 11.8438 7.85156 11.9375C7.66406 12.2656 7.33594 12.3594 7.14844 12.4062C6.77344 12.4766 6.39844 12.5 6 12.5C5.60156 12.5 5.20312 12.4766 4.82812 12.4062C4.64062 12.3594 4.3125 12.2656 4.125 11.9375C4.07812 11.8438 4.05469 11.75 4.03125 11.6562L3.79688 10.7422C3.77344 10.6016 3.53906 10.4844 3.42188 10.5078L2.53125 10.7891C2.4375 10.8125 2.32031 10.8125 2.22656 10.8359C1.85156 10.8359 1.59375 10.6016 1.47656 10.4609C0.960938 9.875 0.5625 9.19531 0.304688 8.44531C0.257812 8.25781 0.1875 7.92969 0.375 7.60156C0.421875 7.53125 0.492188 7.4375 0.5625 7.36719L1.24219 6.73438C1.33594 6.64062 1.33594 6.38281 1.24219 6.28906L0.5625 5.63281C0.492188 5.5625 0.421875 5.49219 0.375 5.39844C0.1875 5.09375 0.257812 4.76562 0.304688 4.57812C0.5625 3.82812 0.960938 3.14844 1.47656 2.5625C1.59375 2.42188 1.85156 2.1875 2.22656 2.1875C2.32031 2.1875 2.4375 2.21094 2.53125 2.23438L3.42188 2.49219C3.53906 2.53906 3.77344 2.39844 3.79688 2.28125L4.03125 1.36719C4.05469 1.27344 4.07812 1.17969 4.125 1.08594C4.3125 0.757812 4.64062 0.664062 4.82812 0.617188C5.20312 0.546875 5.60156 0.5 6 0.5ZM5.10938 1.71875L4.89844 2.53906C4.71094 3.28906 3.84375 3.80469 3.09375 3.59375L2.27344 3.33594C1.89844 3.80469 1.59375 4.32031 1.38281 4.88281L2.01562 5.46875C2.57812 6.00781 2.57812 7.01562 2.01562 7.55469L1.38281 8.14062C1.59375 8.70312 1.89844 9.21875 2.27344 9.6875L3.09375 9.42969C3.84375 9.21875 4.71094 9.73438 4.89844 10.4844L5.10938 11.3047C5.67188 11.4219 6.30469 11.4219 6.89062 11.3047L7.07812 10.4844C7.26562 9.73438 8.13281 9.21875 8.88281 9.42969L9.70312 9.6875C10.0781 9.21875 10.3828 8.70312 10.5938 8.14062L9.98438 7.55469C9.42188 7.01562 9.42188 6.00781 9.98438 5.46875L10.5938 4.88281C10.3828 4.32031 10.0781 3.80469 9.70312 3.33594L8.88281 3.59375C8.15625 3.80469 7.26562 3.28906 7.07812 2.53906L6.89062 1.71875C6.30469 1.60156 5.67188 1.60156 5.10938 1.71875ZM4.875 6.5C4.875 6.92188 5.08594 7.27344 5.4375 7.48438C5.76562 7.69531 6.21094 7.69531 6.5625 7.48438C6.89062 7.27344 7.125 6.92188 7.125 6.5C7.125 6.10156 6.89062 5.75 6.5625 5.53906C6.21094 5.32812 5.76562 5.32812 5.4375 5.53906C5.08594 5.75 4.875 6.10156 4.875 6.5ZM6 8.75C5.17969 8.75 4.45312 8.32812 4.03125 7.625C3.63281 6.94531 3.63281 6.07812 4.03125 5.375C4.45312 4.69531 5.17969 4.25 6 4.25C6.79688 4.25 7.52344 4.69531 7.94531 5.375C8.34375 6.07812 8.34375 6.94531 7.94531 7.625C7.52344 8.32812 6.79688 8.75 6 8.75Z" fill="#050041"/>
</svg>
