<svg width="11" height="14" viewBox="0 0 11 14" fill="none" xmlns="http://www.w3.org/2000/svg">
<path d="M0.333496 0.625H0.942871H9.47412H10.0835V1.84375H9.47412H9.271V3.67188V3.92578L9.09326 4.10352L6.07178 7.125L9.09326 10.1465L9.271 10.3242V10.5781V12.4062H9.47412H10.0835V13.625H9.47412H0.942871H0.333496V12.4062H0.942871H1.146V10.5781V10.3496L1.32373 10.1719L4.34521 7.15039L1.32373 4.10352L1.146 3.92578V3.67188V1.84375H0.942871H0.333496V0.625ZM2.36475 1.84375V3.44336L2.79639 3.875H7.59521L8.05225 3.44336V1.84375H2.36475ZM2.79639 10.375H7.59521L5.2085 7.98828L2.79639 10.375Z" fill="#E2A20C"/>
</svg>
