<svg width="20" height="20" viewBox="0 0 20 20" fill="none" xmlns="http://www.w3.org/2000/svg">
<path d="M9.99914 2C8.32898 2 6.69634 2.49526 5.30765 3.42315C3.91897 4.35103 2.83663 5.66987 2.19749 7.2129C1.55835 8.75592 1.39112 10.4538 1.71695 12.0919C2.04278 13.7299 2.84704 15.2346 4.02801 16.4156C5.20899 17.5965 6.71365 18.4008 8.35171 18.7266C9.98977 19.0525 11.6877 18.8852 13.2307 18.2461C14.7737 17.607 16.0925 16.5246 17.0204 15.1359C17.9483 13.7472 18.4436 12.1146 18.4436 10.4444C18.4436 8.20484 17.5539 6.05696 15.9703 4.47332C14.3866 2.88968 12.2387 2 9.99914 2V2ZM9.99914 17.8333C8.53775 17.8333 7.10919 17.4 5.89409 16.5881C4.67899 15.7762 3.73194 14.6222 3.17269 13.2721C2.61345 11.9219 2.46712 10.4362 2.75222 9.00294C3.03732 7.56964 3.74105 6.25307 4.7744 5.21971C5.80776 4.18636 7.12433 3.48263 8.55764 3.19753C9.99094 2.91243 11.4766 3.05875 12.8267 3.618C14.1769 4.17725 15.3309 5.1243 16.1428 6.3394C16.9547 7.55449 17.388 8.98306 17.388 10.4444C17.388 12.4041 16.6096 14.2835 15.2239 15.6692C13.8382 17.0549 11.9588 17.8333 9.99914 17.8333Z" fill="#FDBA12"/>
<path d="M10.1526 5.6519C9.5807 5.64245 9.01371 5.75908 8.49195 5.9935C7.97019 6.22793 7.50646 6.5744 7.13373 7.00829C7.08195 7.05628 7.04032 7.11417 7.01131 7.17853C6.9823 7.2429 6.9665 7.31243 6.96484 7.38301C6.96481 7.44813 6.97787 7.51259 7.00326 7.57256C7.02864 7.63252 7.06583 7.68677 7.11261 7.73207C7.15939 7.77737 7.2148 7.8128 7.27555 7.83625C7.3363 7.8597 7.40115 7.87069 7.46623 7.86857C7.60566 7.86511 7.73898 7.81066 7.84095 7.71551C8.12303 7.38495 8.47338 7.11943 8.86788 6.93721C9.26238 6.75499 9.69168 6.6604 10.1262 6.65995C11.3718 6.65995 12.1476 7.46218 12.1476 8.45968V8.48607C12.1476 9.65246 11.2187 10.3016 9.75151 10.4125C9.6921 10.4147 9.63384 10.4296 9.58055 10.4559C9.52727 10.4823 9.48014 10.5196 9.44228 10.5655C9.40441 10.6113 9.37666 10.6646 9.36082 10.7219C9.34499 10.7792 9.34144 10.8392 9.3504 10.898V12.3494C9.36353 12.48 9.42488 12.6011 9.52247 12.6889C9.62006 12.7768 9.74688 12.8251 9.87818 12.8244H9.93623C10.0669 12.8113 10.1879 12.7499 10.2758 12.6523C10.3636 12.5547 10.4119 12.4279 10.4112 12.2966V11.2094C11.9946 10.9877 13.2771 10.1538 13.2771 8.42273V8.39634C13.2612 6.81301 12.0262 5.6519 10.1526 5.6519V5.6519Z" fill="#FDBA12"/>
<path d="M9.88238 15.4317C10.2467 15.4317 10.5421 15.1364 10.5421 14.772C10.5421 14.4077 10.2467 14.1123 9.88238 14.1123C9.51802 14.1123 9.22266 14.4077 9.22266 14.772C9.22266 15.1364 9.51802 15.4317 9.88238 15.4317Z" fill="#FDBA12"/>
</svg>
