<svg id="ic_PDF" xmlns="http://www.w3.org/2000/svg" width="16" height="16" viewBox="0 0 16 16">
  <defs>
    <style>
      .cls-1 {
        fill: #ea4c3a;
      }

      .cls-2 {
        fill: none;
        stroke: #fff;
        stroke-linejoin: round;
        stroke-miterlimit: 10;
      }
    </style>
  </defs>
  <rect id="Rectangle_321" data-name="Rectangle 321" class="cls-1" width="16" height="16" rx="2"/>
  <path id="Path_124" data-name="Path 124" class="cls-2" d="M10.9,4.273c.252.119.2.273.122,1a15.142,15.142,0,0,1-.857,3.471,18.687,18.687,0,0,1-1.935,3.65,10.023,10.023,0,0,1-1.66,1.985,1.924,1.924,0,0,1-.929.5c-.194.032-.282,0-.335-.1a.684.684,0,0,1-.026-.458,1.43,1.43,0,0,1,.449-.717,5.769,5.769,0,0,1,1.485-.988,15.806,15.806,0,0,1,2.3-.858,16.76,16.76,0,0,1,1.784-.416,13.384,13.384,0,0,1,1.334-.188,7.949,7.949,0,0,1,1.22,0,7.411,7.411,0,0,1,1.122.18,2.847,2.847,0,0,1,.866.335,1.452,1.452,0,0,1,.565.6.839.839,0,0,1,.018.685.742.742,0,0,1-.468.368,1.174,1.174,0,0,1-.707,0,3.462,3.462,0,0,1-.928-.5,8.773,8.773,0,0,1-1.148-.988,19.767,19.767,0,0,1-1.5-1.682,11.77,11.77,0,0,1-1.132-1.691,6.316,6.316,0,0,1-.521-1.314A6.956,6.956,0,0,1,9.78,5.969,4.182,4.182,0,0,1,9.8,5.012a1.434,1.434,0,0,1,.177-.589.626.626,0,0,1,.3-.228.8.8,0,0,1,.194-.041.351.351,0,0,1,.186,0,1.419,1.419,0,0,1,.281.15" transform="translate(-2.616 -1.83)"/>
</svg>
