<svg id="ic_txt" xmlns="http://www.w3.org/2000/svg" width="16" height="16" viewBox="0 0 16 16">
  <g id="ic_txt-2" data-name="ic_txt" transform="translate(5)">
    <rect id="Rectangle_322" data-name="Rectangle 322" width="16" height="16" rx="2" transform="translate(-5)" fill="#303030"/>
  </g>
  <path id="Path_128" data-name="Path 128" d="M3.7-1.307a3.874,3.874,0,0,0,1.125-.205v1.33a4.011,4.011,0,0,1-1.641.3A2.008,2.008,0,0,1,1.62-.425a2.359,2.359,0,0,1-.489-1.626V-5.209H.275v-.756l.984-.6.516-1.383H2.918v1.395H4.752v1.342H2.918v3.158a.7.7,0,0,0,.214.563A.844.844,0,0,0,3.7-1.307Z" transform="translate(5 12)" fill="#fff"/>
</svg>
