<svg xmlns="http://www.w3.org/2000/svg" id="prefix__Avatar" width="32" height="32" viewBox="0 0 32 32">
    <defs>
        <style>
            .prefix__cls-2{fill:#bcbec0}
        </style>
    </defs>
    <g id="prefix__Ellipse_18" fill="none" stroke="#bcbec0" stroke-width="1.5px" data-name="Ellipse 18">
        <circle cx="16" cy="16" r="16" stroke="none"/>
        <circle cx="16" cy="16" r="15.25"/>
    </g>
    <g id="prefix__ic_user" transform="translate(-10.301 -7)">
        <path id="prefix__Path_14" d="M30 20.644A5.7 5.7 0 1 0 35.7 15a5.69 5.69 0 0 0-5.7 5.644zm10.062 0a4.36 4.36 0 1 1-4.36-4.316 4.351 4.351 0 0 1 4.36 4.316z" class="prefix__cls-2" data-name="Path 14" transform="translate(-9.424)"/>
        <path id="prefix__Path_15" d="M19.653 99.05a9.42 9.42 0 0 1 13.248 0l.953-.946a10.8 10.8 0 0 0-15.155 0z" class="prefix__cls-2" data-name="Path 15" transform="translate(0 -66.587)"/>
    </g>
</svg>
