<svg version="1.1" id="Layer_1" xmlns="http://www.w3.org/2000/svg" xmlns:xlink="http://www.w3.org/1999/xlink" width="32" height="32" viewBox="0 0 272 240" enable-background="new 0 0 272 240" xml:space="preserve">
<path fill="#bcbec0" stroke="#bcbec0" stroke-width="1.5px"
	d="
M66.080841,199.893829 
	C33.204441,161.294998 51.087288,104.917572 99.836151,92.462540 
	C136.324326,83.140038 173.886826,109.115448 179.565445,146.516937 
	C184.447037,178.668976 163.391464,215.175125 124.536575,220.865189 
	C101.858803,224.186218 82.120163,217.195175 66.080841,199.893829 
M153.325516,172.218506 
	C157.225845,176.563522 159.510849,181.897385 162.019714,187.261734 
	C175.501907,171.478516 177.497253,135.663605 153.468719,114.051331 
	C129.965103,92.911171 93.519516,94.389076 72.556473,117.411133 
	C52.345703,139.607040 54.342438,171.902054 67.677483,187.219879 
	C70.419083,180.789047 73.586983,174.808594 78.408821,169.824478 
	C83.298332,164.770432 89.220894,161.201324 95.398117,158.106094 
	C87.502113,143.066910 88.560493,130.936386 98.140755,122.594429 
	C106.802032,115.052673 120.088280,114.485855 129.644028,121.250412 
	C140.295029,128.790298 141.799408,139.564087 134.565292,158.402557 
	C141.382294,161.716766 147.889465,165.690414 153.325516,172.218506 
M152.121628,185.440475 
	C148.156387,177.378571 142.004044,171.488266 134.081253,167.398499 
	C129.732483,165.153656 125.460800,163.711487 120.319351,165.660416 
	C116.086281,167.265030 111.439201,166.619125 107.075478,165.190994 
	C105.139214,164.557312 103.330605,164.192047 101.268738,164.941269 
	C88.631615,169.533066 79.707405,177.698410 75.332069,190.693237 
	C73.875572,195.019073 74.894409,197.734604 78.345406,200.567719 
	C98.080963,216.769760 126.604530,217.938278 147.540955,203.179962 
	C156.338959,196.978149 156.548569,196.251434 152.121628,185.440475 
M98.206383,141.498611 
	C98.809212,151.579224 105.481667,158.090027 115.094910,157.977966 
	C124.254631,157.871201 131.546844,150.581802 131.641098,141.438171 
	C131.730591,132.756638 124.029945,124.803177 115.212334,124.470047 
	C106.552483,124.142883 99.105583,131.234238 98.206383,141.498611 
z"/>
<path fill="#bcbec0" stroke="#bcbec0" stroke-width="1.5px"
	d="
M213.343246,112.608414 
	C188.162964,116.030060 162.406845,96.392075 158.722107,71.386017 
	C154.581650,43.287277 170.830215,19.443304 198.317627,13.281525 
	C228.123108,6.600109 257.089233,29.731995 258.561218,60.288765 
	C259.865509,87.364136 238.459198,110.665169 213.343246,112.608414 
M186.112457,67.512451 
	C190.552902,65.673538 192.316269,63.441315 189.925430,58.130432 
	C186.323181,50.128620 189.684814,40.378712 196.559570,35.424927 
	C203.758682,30.237421 213.729340,30.461348 220.781006,35.968914 
	C227.466568,41.190533 229.889221,50.733440 226.714218,58.975029 
	C226.083939,60.611076 224.545456,62.011356 225.242416,64.361099 
	C233.484009,68.376060 239.831696,74.716774 244.002029,83.465233 
	C254.684021,69.190651 252.115097,44.641304 235.752197,30.605616 
	C218.748749,16.020477 193.311478,17.494135 177.547836,33.931763 
	C162.931473,49.173054 163.941803,74.139244 172.516052,82.802742 
	C174.392990,80.062515 176.156860,77.253410 178.160599,74.627342 
	C180.190186,71.967407 182.745026,69.805061 186.112457,67.512451 
M220.423538,102.962418 
	C225.942429,101.388054 230.844849,98.658768 235.267746,95.033348 
	C237.065598,93.559669 237.930206,91.952614 237.248489,89.401596 
	C234.111649,77.663246 222.709167,69.765633 210.781586,71.196228 
	C208.475418,71.472839 206.131546,71.503151 203.859818,70.776176 
	C202.076569,70.205521 200.227966,69.982910 198.460770,70.603745 
	C189.503326,73.750618 183.011993,79.476097 179.781342,88.609055 
	C178.733704,91.570663 179.619812,93.592621 182.074921,95.475739 
	C193.378265,104.145691 205.856598,106.801819 220.423538,102.962418 
M200.629562,43.049129 
	C197.141693,46.492962 195.723770,50.563599 197.488083,55.260300 
	C198.972870,59.212875 201.813095,61.939438 206.113098,62.706490 
	C211.731339,63.708706 216.562332,61.189964 218.835129,56.226501 
	C220.933624,51.643715 219.890961,46.323433 216.242508,42.997639 
	C212.084457,39.207298 206.602081,39.039387 200.629562,43.049129 
z"/>
<path fill="#bcbec0" stroke="#bcbec0" stroke-width="1.5px"
	d="
M97.276672,54.863239 
	C92.618996,57.080097 91.033348,60.579552 91.190025,65.195778 
	C91.319809,69.019638 91.263199,72.856216 91.118752,76.680733 
	C91.023705,79.197014 90.045097,81.460358 87.157722,81.563034 
	C83.987213,81.675781 82.837227,79.398788 82.788452,76.618042 
	C82.706741,71.959145 82.452423,67.262749 82.901245,62.643387 
	C83.873978,52.631916 91.540367,45.858627 101.855553,45.744678 
	C113.659492,45.614285 125.465988,45.714470 137.292908,45.714470 
	C137.893005,43.087105 135.852661,42.257641 134.891190,40.888405 
	C133.490616,38.893848 133.050568,36.876839 134.854111,35.020538 
	C136.706985,33.113426 138.860687,33.452370 140.630127,35.145752 
	C144.477432,38.827652 148.266434,42.577274 151.936127,46.435379 
	C154.130875,48.742817 153.879776,51.364086 151.773422,53.588791 
	C148.341187,57.213871 144.788467,60.729031 141.194153,64.194717 
	C139.409424,65.915581 137.268661,67.085754 135.053833,64.941917 
	C132.772781,62.733974 133.573578,60.452854 135.362137,58.314121 
	C136.198517,57.313995 137.010544,56.293499 138.712555,54.202316 
	C124.317787,54.419724 110.986557,53.661213 97.276672,54.863239 
z"/>
<path fill="#bcbec0" stroke="#bcbec0" stroke-width="1.5px"
	d="
M225.111115,130.612778 
	C225.223969,143.543671 225.330185,156.033096 225.273224,168.521805 
	C225.218704,180.476257 217.540146,188.072403 205.514023,188.268402 
	C203.760727,188.296982 202.006577,188.272354 200.160797,188.272354 
	C200.437241,191.093353 202.404572,191.876129 203.316208,193.397354 
	C204.560043,195.472916 204.893829,197.514572 202.942352,199.251007 
	C201.128586,200.864883 199.163528,200.397888 197.563370,198.851761 
	C193.732544,195.150269 189.933090,191.411591 186.244171,187.569626 
	C183.830734,185.056046 184.288239,182.406143 186.578384,180.049271 
	C189.827011,176.705963 193.113113,173.395065 196.485794,170.177887 
	C198.341751,168.407486 200.566528,166.680664 203.004761,169.034836 
	C205.478073,171.422867 204.308289,173.864273 202.357086,176.047867 
	C201.591583,176.904526 200.821198,177.756805 199.996719,178.673721 
	C209.803635,182.344589 216.778549,177.725632 216.827988,167.670883 
	C216.885315,156.013855 216.836182,144.356323 216.866165,132.699097 
	C216.872498,130.239563 217.462616,127.898376 220.125656,127.103622 
	C222.708572,126.332771 224.154251,127.929314 225.111115,130.612778 
z"/>
</svg>