<svg width="32" height="32" viewBox="0 0 32 32" fill="none" xmlns="http://www.w3.org/2000/svg">
<path d="M5.96705 26.0905C2.09924 21.5494 4.2031 14.9168 9.93826 13.4515C14.231 12.3547 18.6501 15.4107 19.3182 19.8108C19.8925 23.5934 17.4154 27.8883 12.8442 28.5577C10.1762 28.9484 7.85403 28.1259 5.96705 26.0905ZM16.2311 22.8345C16.69 23.3457 16.9588 23.9732 17.254 24.6043C18.8401 22.7475 19.0749 18.534 16.248 15.9913C13.4828 13.5043 9.19513 13.6781 6.72889 16.3866C4.35115 18.9979 4.58606 22.7973 6.15489 24.5994C6.47743 23.8428 6.85013 23.1393 7.4174 22.5529C7.99264 21.9583 8.68941 21.5384 9.41614 21.1743C8.4872 19.4049 8.61172 17.9778 9.73881 16.9964C10.7578 16.1092 12.3209 16.0425 13.4451 16.8383C14.6981 17.7253 14.8751 18.9928 14.024 21.2091C14.826 21.599 15.5916 22.0665 16.2311 22.8345ZM16.0895 24.3901C15.623 23.4416 14.8992 22.7486 13.9671 22.2675C13.4555 22.0034 12.9529 21.8337 12.3481 22.063C11.85 22.2518 11.3033 22.1758 10.7899 22.0078C10.5622 21.9332 10.3494 21.8903 10.1068 21.9784C8.62008 22.5186 7.57018 23.4792 7.05543 25.008C6.88408 25.517 7.00394 25.8364 7.40994 26.1697C9.73177 28.0759 13.0875 28.2133 15.5506 26.4771C16.5857 25.7474 16.6103 25.6619 16.0895 24.3901ZM9.74653 19.2204C9.81745 20.4064 10.6024 21.1724 11.7334 21.1592C12.811 21.1466 13.6689 20.289 13.68 19.2133C13.6906 18.192 12.7846 17.2563 11.7472 17.2171C10.7284 17.1786 9.85231 18.0129 9.74653 19.2204Z" fill="#050041" stroke="#050041" stroke-width="0.176471"/>
<path d="M23.292 15.8216C20.3296 16.2241 17.2995 13.9138 16.866 10.9719C16.3789 7.66617 18.2905 4.861 21.5243 4.13608C25.0308 3.35003 28.4386 6.07143 28.6118 9.66635C28.7652 12.8517 26.2468 15.593 23.292 15.8216ZM20.0884 10.5162C20.6108 10.2998 20.8183 10.0372 20.537 9.41242C20.1132 8.47103 20.5087 7.32399 21.3175 6.74119C22.1644 6.13089 23.3374 6.15724 24.1671 6.80519C24.9536 7.41949 25.2386 8.54219 24.8651 9.51179C24.7909 9.70426 24.6099 9.869 24.6919 10.1454C25.6615 10.6178 26.4083 11.3638 26.8989 12.393C28.1556 10.7136 27.8534 7.82547 25.9284 6.17421C23.928 4.45831 20.9353 4.63168 19.0808 6.56552C17.3612 8.35861 17.4801 11.2958 18.4888 12.315C18.7096 11.9927 18.9172 11.6622 19.1529 11.3532C19.3917 11.0403 19.6922 10.7859 20.0884 10.5162ZM24.125 14.6868C24.7743 14.5016 25.351 14.1805 25.8714 13.7539C26.0829 13.5806 26.1846 13.3915 26.1044 13.0914C25.7354 11.7104 24.3939 10.7813 22.9907 10.9496C22.7193 10.9821 22.4436 10.9857 22.1763 10.9002C21.9665 10.833 21.749 10.8068 21.5411 10.8799C20.4873 11.2501 19.7236 11.9237 19.3436 12.9981C19.2203 13.3466 19.3246 13.5844 19.6134 13.806C20.9432 14.826 22.4112 15.1385 24.125 14.6868ZM21.7963 7.63815C21.386 8.04331 21.2191 8.52221 21.4267 9.07476C21.6014 9.53977 21.9355 9.86054 22.4414 9.95078C23.1024 10.0687 23.6707 9.77237 23.9381 9.18843C24.185 8.64928 24.0623 8.02337 23.6331 7.6321C23.1439 7.18617 22.4989 7.16642 21.7963 7.63815Z" fill="#050041" stroke="#050041" stroke-width="0.176471"/>
<path d="M9.63718 9.02808C9.08922 9.28888 8.90268 9.70058 8.92111 10.2437C8.93638 10.6935 8.92972 11.1449 8.91272 11.5948C8.90154 11.8909 8.78641 12.1571 8.44672 12.1692C8.07372 12.1825 7.93843 11.9146 7.93269 11.5875C7.92308 11.0394 7.89316 10.4868 7.94596 9.94339C8.0604 8.76557 8.96233 7.96871 10.1759 7.9553C11.5646 7.93996 12.9536 7.95175 14.345 7.95175C14.4156 7.64265 14.1755 7.54506 14.0624 7.38398C13.8976 7.14932 13.8459 6.91203 14.0581 6.69364C14.276 6.46927 14.5294 6.50915 14.7376 6.70837C15.1902 7.14154 15.636 7.58267 16.0677 8.03656C16.3259 8.30803 16.2964 8.61641 16.0486 8.87814C15.6448 9.30462 15.2268 9.71817 14.8039 10.1259C14.594 10.3284 14.3421 10.466 14.0816 10.2138C13.8132 9.95404 13.9074 9.68568 14.1178 9.43406C14.2162 9.3164 14.3118 9.19634 14.512 8.95032C12.8185 8.9759 11.2501 8.88666 9.63718 9.02808Z" fill="#050041" stroke="#050041" stroke-width="0.176471"/>
<path d="M24.6766 17.9398C24.6898 19.4611 24.7023 20.9305 24.6956 22.3997C24.6892 23.8061 23.7859 24.6998 22.371 24.7229C22.1648 24.7262 21.9584 24.7233 21.7412 24.7233C21.7738 25.0552 22.0052 25.1473 22.1125 25.3263C22.2588 25.5704 22.2981 25.8106 22.0685 26.0149C21.8551 26.2048 21.6239 26.1498 21.4357 25.968C20.985 25.5325 20.538 25.0926 20.104 24.6406C19.8201 24.3449 19.8739 24.0332 20.1433 23.7559C20.5255 23.3626 20.9121 22.973 21.3089 22.5946C21.5272 22.3863 21.789 22.1831 22.0758 22.4601C22.3668 22.741 22.2292 23.0282 21.9996 23.2851C21.9096 23.3859 21.8189 23.4862 21.7219 23.5941C22.8757 24.0259 23.6963 23.4825 23.7021 22.2996C23.7088 20.9282 23.703 19.5567 23.7066 18.1853C23.7073 17.8959 23.7767 17.6205 24.09 17.527C24.3939 17.4363 24.564 17.6241 24.6766 17.9398Z" fill="#050041" stroke="#050041" stroke-width="0.176471"/>
</svg>
