<svg width="14" height="14" viewBox="0 0 14 14" fill="none" xmlns="http://www.w3.org/2000/svg">
<path d="M7.44287 1.23438V6.49023L9.04248 4.89062L9.47412 4.45898L10.312 5.29688L9.88037 5.72852L7.26514 8.36914L6.8335 8.80078L6.40186 8.36914L3.76123 5.72852L3.32959 5.29688L4.19287 4.45898L4.62451 4.89062L6.22412 6.49023V1.23438V0.625H7.44287V1.23438ZM4.396 8.75L5.2085 10.375H8.4585L9.271 8.75H12.1147H13.3335V9.96875V12.4062V13.625H12.1147H1.55225H0.333496V12.4062V9.96875V8.75H1.55225H4.396ZM9.5249 10.9336L9.19482 11.5938H8.4585H5.2085H4.44678L4.1167 10.9336L3.63428 9.96875H1.55225V12.4062H12.1147V9.96875H10.0073L9.55029 10.9336H9.5249Z" fill="#E2A20C"/>
</svg>
