<svg width="36" height="36" viewBox="0 0 36 36" fill="none" xmlns="http://www.w3.org/2000/svg">
<rect width="36" height="36" rx="18" fill="#E8E8E8"/>
<path d="M15.0537 22H12.5244L9.91699 16.9707H9.87305C9.88932 17.1237 9.90397 17.3076 9.91699 17.5225C9.93001 17.7373 9.94141 17.957 9.95117 18.1816C9.96094 18.403 9.96582 18.6032 9.96582 18.7822V22H8.25684V14.8613H10.7764L13.374 19.8223H13.4033C13.3936 19.666 13.3838 19.4854 13.374 19.2803C13.3643 19.0719 13.3545 18.862 13.3447 18.6504C13.3382 18.4388 13.335 18.2516 13.335 18.0889V14.8613H15.0537V22ZM20.2246 14.7588L17.5635 22.0977H15.874L18.5352 14.7588H20.2246ZM25.4004 22L25.0488 20.6621H22.7295L22.3682 22H20.249L22.5781 14.832H25.1514L27.5098 22H25.4004ZM24.6484 19.0801L24.3408 17.9082C24.3083 17.7812 24.2611 17.6006 24.1992 17.3662C24.1374 17.1286 24.0755 16.8844 24.0137 16.6338C23.9551 16.3799 23.9095 16.1715 23.877 16.0088C23.8477 16.1715 23.8053 16.3734 23.75 16.6143C23.6979 16.8519 23.6426 17.0879 23.584 17.3223C23.5286 17.5566 23.4798 17.752 23.4375 17.9082L23.1299 19.0801H24.6484Z" fill="#080808"/>
</svg>
