<svg width="36" height="36" viewBox="0 0 36 36" fill="none" xmlns="http://www.w3.org/2000/svg">
<circle cx="18" cy="18" r="15.5" stroke="#E8E8E8" stroke-width="5"/>
<path d="M18 2.4768C18 1.1089 19.1141 -0.0175128 20.469 0.170121C23.3877 0.574294 26.176 1.69096 28.5801 3.43769C31.6554 5.672 33.9444 8.82251 35.119 12.4377C36.2937 16.0529 36.2937 19.9471 35.119 23.5623C34.2007 26.3886 32.6013 28.9309 30.4776 30.9734C29.4917 31.9216 27.9283 31.6652 27.1243 30.5585V30.5585C26.3203 29.4519 26.5875 27.9164 27.5225 26.918C28.8244 25.5279 29.8132 23.8619 30.4079 22.0316C31.2592 19.4113 31.2592 16.5887 30.4079 13.9684C29.5565 11.3482 27.8974 9.06467 25.6685 7.44524C24.1115 6.31404 22.3323 5.54742 20.462 5.188C19.1187 4.92985 18 3.8447 18 2.4768V2.4768Z" fill="#050041"/>
</svg>
