<svg width="38" height="37" viewBox="0 0 38 37" fill="none" xmlns="http://www.w3.org/2000/svg">
<path d="M19 2.75C13.3047 2.75 8.17188 5.77344 5.35938 10.625C2.47656 15.5469 2.47656 21.5234 5.35938 26.375C8.17188 31.2969 13.3047 34.25 19 34.25C24.625 34.25 29.7578 31.2969 32.5703 26.375C35.4531 21.5234 35.4531 15.5469 32.5703 10.625C29.7578 5.77344 24.625 2.75 19 2.75ZM19 36.5C12.5312 36.5 6.625 33.125 3.39062 27.5C0.15625 21.9453 0.15625 15.125 3.39062 9.5C6.625 3.94531 12.5312 0.5 19 0.5C25.3984 0.5 31.3047 3.94531 34.5391 9.5C37.7734 15.125 37.7734 21.9453 34.5391 27.5C31.3047 33.125 25.3984 36.5 19 36.5ZM26.5234 14.8438L17.5234 23.8438C17.1016 24.2656 16.3281 24.2656 15.9062 23.8438L11.4062 19.3438C10.9844 18.9219 10.9844 18.1484 11.4062 17.7266C11.8281 17.3047 12.6016 17.3047 13.0234 17.7266L16.75 21.4531L24.9062 13.2266C25.3281 12.8047 26.1016 12.8047 26.5234 13.2266C26.9453 13.6484 26.9453 14.4219 26.5234 14.8438Z" fill="#00C041"/>
</svg>
