<svg width="22" height="24" viewBox="0 0 22 24" fill="none" xmlns="http://www.w3.org/2000/svg">
<path d="M20.625 11.75C20.625 8.3125 18.7773 5.17578 15.8125 3.45703C12.8047 1.69531 9.15234 1.69531 6.1875 3.45703C3.17969 5.17578 1.375 8.3125 1.375 11.75C1.375 15.2305 3.17969 18.3672 6.1875 20.0859C9.15234 21.8477 12.8047 21.8477 15.8125 20.0859C18.7773 18.3672 20.625 15.2305 20.625 11.75ZM0 11.75C0 7.83984 2.0625 4.23047 5.5 2.25391C8.89453 0.277344 13.0625 0.277344 16.5 2.25391C19.8945 4.23047 22 7.83984 22 11.75C22 15.7031 19.8945 19.3125 16.5 21.2891C13.0625 23.2656 8.89453 23.2656 5.5 21.2891C2.0625 19.3125 0 15.7031 0 11.75ZM7.21875 8.05469C7.51953 7.02344 8.46484 6.25 9.53906 6.25H12.0312C13.5352 6.25 14.7812 7.49609 14.7812 9.04297C14.7812 10.0742 14.1797 11.0195 13.2773 11.4922L11.6875 12.3086V13.125C11.6875 13.5117 11.3438 13.8125 11 13.8125C10.6133 13.8125 10.3125 13.5117 10.3125 13.125V11.8789C10.3125 11.6211 10.4414 11.3633 10.6562 11.2773L12.6328 10.2461C13.1055 10.0312 13.4062 9.55859 13.4062 9.04297C13.4062 8.26953 12.7617 7.625 12.0312 7.625H9.53906C9.10938 7.625 8.67969 7.96875 8.55078 8.39844V8.44141C8.46484 8.78516 8.07812 9.04297 7.73438 8.91406C7.34766 8.82812 7.13281 8.44141 7.21875 8.09766V8.05469ZM9.96875 15.875C9.96875 15.3164 10.3984 14.8438 11 14.8438C11.5586 14.8438 12.0312 15.3164 12.0312 15.875C12.0312 16.4766 11.5586 16.9062 11 16.9062C10.3984 16.9062 9.96875 16.4766 9.96875 15.875Z" fill="#7B7B7B"/>
</svg>
