<svg width="22" height="24" viewBox="0 0 22 24" fill="none" xmlns="http://www.w3.org/2000/svg">
<path d="M19.9375 11.75C19.9375 8.57031 18.2188 5.64844 15.4688 4.01562C12.6758 2.42578 9.28125 2.42578 6.53125 4.01562C3.73828 5.64844 2.0625 8.57031 2.0625 11.75C2.0625 14.9727 3.73828 17.8945 6.53125 19.5273C9.28125 21.1172 12.6758 21.1172 15.4688 19.5273C18.2188 17.8945 19.9375 14.9727 19.9375 11.75ZM0 11.75C0 7.83984 2.0625 4.23047 5.5 2.25391C8.89453 0.277344 13.0625 0.277344 16.5 2.25391C19.8945 4.23047 22 7.83984 22 11.75C22 15.7031 19.8945 19.3125 16.5 21.2891C13.0625 23.2656 8.89453 23.2656 5.5 21.2891C2.0625 19.3125 0 15.7031 0 11.75ZM7.26172 7.88281C7.60547 6.89453 8.50781 6.25 9.53906 6.25H12.0312C13.5352 6.25 14.7812 7.49609 14.7812 9C14.7812 9.94531 14.2227 10.8477 13.4062 11.3203L12.0312 12.1367C11.9883 12.6953 11.5586 13.125 11 13.125C10.3984 13.125 9.96875 12.6953 9.96875 12.0938V11.5352C9.96875 11.1484 10.1406 10.8047 10.4844 10.6328L12.375 9.55859C12.5898 9.42969 12.7188 9.21484 12.7188 9C12.7188 8.61328 12.418 8.35547 12.0312 8.35547H9.53906C9.41016 8.35547 9.28125 8.44141 9.23828 8.57031L9.19531 8.61328C9.02344 9.17188 8.42188 9.42969 7.90625 9.25781C7.34766 9.04297 7.08984 8.44141 7.26172 7.92578V7.88281ZM9.625 15.875C9.625 15.1445 10.2266 14.5 11 14.5C11.7305 14.5 12.375 15.1445 12.375 15.875C12.375 16.6484 11.7305 17.25 11 17.25C10.2266 17.25 9.625 16.6484 9.625 15.875Z" fill="#696969"/>
</svg>
