<svg width="12" height="11" viewBox="0 0 12 11" fill="none" xmlns="http://www.w3.org/2000/svg">
<path d="M8.25 2.94531V4.1875C8.25 4.51562 7.99219 4.75 7.6875 4.75H4.875V6.25H7.6875C7.99219 6.25 8.25 6.50781 8.25 6.8125V8.07812L10.8281 5.5L8.25 2.94531ZM12 5.5C12 5.78125 11.8828 6.03906 11.6953 6.22656L8.97656 8.94531C8.76562 9.15625 8.48438 9.25 8.20312 9.25C7.59375 9.25 7.125 8.78125 7.125 8.17188V7.375H4.875C4.24219 7.375 3.75 6.88281 3.75 6.25V4.75C3.75 4.14062 4.24219 3.625 4.875 3.625H7.125V2.85156C7.125 2.24219 7.59375 1.75 8.20312 1.75C8.48438 1.75 8.76562 1.86719 8.97656 2.07812L11.6953 4.79688C11.8828 4.98438 12 5.24219 12 5.5ZM3.9375 1.375H2.0625C1.52344 1.375 1.125 1.79688 1.125 2.3125V8.6875C1.125 9.22656 1.52344 9.625 2.0625 9.625H3.9375C4.24219 9.625 4.5 9.88281 4.5 10.1875C4.5 10.5156 4.24219 10.75 3.9375 10.75H2.0625C0.914062 10.75 0 9.83594 0 8.6875V2.3125C0 1.1875 0.914062 0.25 2.0625 0.25H3.9375C4.24219 0.25 4.5 0.507812 4.5 0.8125C4.5 1.14062 4.24219 1.375 3.9375 1.375Z" fill="#050041"/>
</svg>
