<svg width="14" height="14" viewBox="0 0 14 14" fill="none" xmlns="http://www.w3.org/2000/svg">
<path d="M9.62921 5.87024C9.62921 4.53561 8.9023 3.31805 7.7533 2.63902C6.58085 1.96 5.15046 1.96 4.00147 2.63902C2.82902 3.31805 2.12555 4.53561 2.12555 5.87024C2.12555 7.22829 2.82902 8.44585 4.00147 9.12488C5.15046 9.8039 6.58085 9.8039 7.7533 9.12488C8.9023 8.44585 9.62921 7.22829 9.62921 5.87024ZM8.9023 9.71024C8.05813 10.3659 7.00293 10.7405 5.87738 10.7405C3.18075 10.7405 1 8.56293 1 5.87024C1 3.20098 3.18075 1 5.87738 1C8.55056 1 10.7548 3.20098 10.7548 5.87024C10.7548 7.01756 10.3561 8.07122 9.69956 8.91415L12.8417 12.0283C13.0528 12.2624 13.0528 12.6137 12.8417 12.8244C12.6072 13.0585 12.2555 13.0585 12.0445 12.8244L8.9023 9.71024Z" fill="#696969"/>
</svg>
