<svg width="12" height="13" viewBox="0 0 12 13" fill="none" xmlns="http://www.w3.org/2000/svg">
<path d="M2.25 0.5H3H9H9.75C10.1484 0.5 10.5 0.851562 10.5 1.25C10.5 1.67188 10.1484 2 9.75 2V2.25781C9.75 3.26562 9.35156 4.22656 8.64844 4.92969L7.05469 6.5L8.64844 8.09375C9.35156 8.79688 9.75 9.75781 9.75 10.7422V11C10.1484 11 10.5 11.3516 10.5 11.75C10.5 12.1719 10.1484 12.5 9.75 12.5H9H3H2.25C1.82812 12.5 1.5 12.1719 1.5 11.75C1.5 11.3516 1.82812 11 2.25 11V10.7422C2.25 9.75781 2.625 8.79688 3.32812 8.09375L4.92188 6.5L3.32812 4.92969C2.625 4.22656 2.25 3.26562 2.25 2.25781V2C1.82812 2 1.5 1.67188 1.5 1.25C1.5 0.851562 1.82812 0.5 2.25 0.5ZM3.75 2.25781C3.75 2.70312 3.86719 3.14844 4.125 3.5H7.875C8.10938 3.14844 8.25 2.70312 8.25 2.25781V2H3.75V2.25781ZM4.125 9.5V9.52344H7.875C7.78125 9.38281 7.6875 9.26562 7.57031 9.17188L6 7.57812L4.40625 9.17188C4.28906 9.26562 4.19531 9.38281 4.125 9.5Z" fill="#FDBA12"/>
</svg>
