<svg width="12" height="12" viewBox="0 0 12 12" fill="none" xmlns="http://www.w3.org/2000/svg">
<path d="M9.96094 1.48438C10.2422 1.17969 10.7344 1.17969 11.0156 1.48438C11.3203 1.76562 11.3203 2.25781 11.0156 2.53906L7.05469 6.5L11.0156 10.4844C11.3203 10.7656 11.3203 11.2578 11.0156 11.5391C10.7344 11.8438 10.2422 11.8438 9.96094 11.5391L6 7.57812L2.01562 11.5391C1.73438 11.8438 1.24219 11.8438 0.960938 11.5391C0.65625 11.2578 0.65625 10.7656 0.960938 10.4844L4.92188 6.5L0.960938 2.53906C0.65625 2.25781 0.65625 1.76562 0.960938 1.48438C1.24219 1.17969 1.73438 1.17969 2.01562 1.48438L6 5.44531L9.96094 1.48438Z" fill="#E51010"/>
</svg>
