<svg width="12" height="13" viewBox="0 0 12 13" fill="none" xmlns="http://www.w3.org/2000/svg">
<path d="M4.73438 1.71875L4.28906 2.375H7.6875L7.24219 1.71875C7.21875 1.67188 7.14844 1.625 7.07812 1.625H4.89844C4.82812 1.625 4.75781 1.67188 4.73438 1.71875ZM8.17969 1.08594L9.04688 2.375H9.375H10.5H10.6875C10.9922 2.375 11.25 2.63281 11.25 2.9375C11.25 3.26562 10.9922 3.5 10.6875 3.5H10.5V10.625C10.5 11.6797 9.65625 12.5 8.625 12.5H3.375C2.32031 12.5 1.5 11.6797 1.5 10.625V3.5H1.3125C0.984375 3.5 0.75 3.26562 0.75 2.9375C0.75 2.63281 0.984375 2.375 1.3125 2.375H1.5H2.625H2.92969L3.79688 1.08594C4.03125 0.734375 4.45312 0.5 4.89844 0.5H7.07812C7.52344 0.5 7.94531 0.734375 8.17969 1.08594ZM2.625 3.5V10.625C2.625 11.0469 2.95312 11.375 3.375 11.375H8.625C9.02344 11.375 9.375 11.0469 9.375 10.625V3.5H2.625ZM4.5 5V9.875C4.5 10.0859 4.3125 10.25 4.125 10.25C3.91406 10.25 3.75 10.0859 3.75 9.875V5C3.75 4.8125 3.91406 4.625 4.125 4.625C4.3125 4.625 4.5 4.8125 4.5 5ZM6.375 5V9.875C6.375 10.0859 6.1875 10.25 6 10.25C5.78906 10.25 5.625 10.0859 5.625 9.875V5C5.625 4.8125 5.78906 4.625 6 4.625C6.1875 4.625 6.375 4.8125 6.375 5ZM8.25 5V9.875C8.25 10.0859 8.0625 10.25 7.875 10.25C7.66406 10.25 7.5 10.0859 7.5 9.875V5C7.5 4.8125 7.66406 4.625 7.875 4.625C8.0625 4.625 8.25 4.8125 8.25 5Z" fill="#484848"/>
</svg>
