<svg width="12" height="12" viewBox="0 0 12 12" fill="none" xmlns="http://www.w3.org/2000/svg">
<path d="M6.6875 8.4375V9.125H5.3125V8.4375V3.58203L3.89453 4.97852L3.42188 5.47266L2.43359 4.48438L2.92773 4.01172L5.50586 1.43359L6 0.939453L6.47266 1.43359L9.05078 4.01172L9.54492 4.48438L8.57812 5.47266L8.08398 4.97852L6.6875 3.58203V8.4375ZM7.375 9.8125V8.4375H11.5V11.875H0.5V8.4375H4.625V9.8125H7.375ZM9.78125 10.6719C10.0605 10.6719 10.2969 10.457 10.2969 10.1562C10.2969 9.87695 10.0605 9.64062 9.78125 9.64062C9.48047 9.64062 9.26562 9.87695 9.26562 10.1562C9.26562 10.457 9.48047 10.6719 9.78125 10.6719Z" fill="white"/>
</svg>
