<svg width="14" height="13" viewBox="0 0 14 13" fill="none" xmlns="http://www.w3.org/2000/svg">
<path d="M10.6562 10.2734C11.6406 9.3125 12.25 7.97656 12.25 6.5C12.25 3.61719 9.88281 1.25 7 1.25C4.09375 1.25 1.75 3.61719 1.75 6.5C1.75 7.97656 2.35938 9.3125 3.32031 10.2734C3.64844 8.98438 4.84375 8 6.25 8H7.75C9.13281 8 10.3281 8.98438 10.6562 10.2734ZM9.97656 10.8125V10.8359C9.88281 9.66406 8.92188 8.75 7.75 8.75H6.25C5.05469 8.75 4.09375 9.66406 4 10.8359C4.84375 11.4219 5.875 11.75 7 11.75C8.10156 11.75 9.13281 11.4219 9.97656 10.8125ZM7 12.5C4.84375 12.5 2.875 11.375 1.79688 9.5C0.71875 7.64844 0.71875 5.375 1.79688 3.5C2.875 1.64844 4.84375 0.5 7 0.5C9.13281 0.5 11.1016 1.64844 12.1797 3.5C13.2578 5.375 13.2578 7.64844 12.1797 9.5C11.1016 11.375 9.13281 12.5 7 12.5ZM7 6.5C7.39844 6.5 7.75 6.28906 7.96094 5.9375C8.17188 5.60938 8.17188 5.16406 7.96094 4.8125C7.75 4.48438 7.39844 4.25 7 4.25C6.57812 4.25 6.22656 4.48438 6.01562 4.8125C5.80469 5.16406 5.80469 5.60938 6.01562 5.9375C6.22656 6.28906 6.57812 6.5 7 6.5ZM5.125 5.375C5.125 4.71875 5.47656 4.10938 6.0625 3.75781C6.625 3.42969 7.35156 3.42969 7.9375 3.75781C8.5 4.10938 8.875 4.71875 8.875 5.375C8.875 6.05469 8.5 6.66406 7.9375 7.01562C7.35156 7.34375 6.625 7.34375 6.0625 7.01562C5.47656 6.66406 5.125 6.05469 5.125 5.375Z" fill="#303030"/>
</svg>
