<svg width="28" height="27" viewBox="0 0 28 27" fill="none" xmlns="http://www.w3.org/2000/svg">
<path d="M21.9219 21.4258C24.0547 19.3438 25.375 16.4492 25.375 13.25C25.375 7.00391 20.2461 1.875 14 1.875C7.70312 1.875 2.625 7.00391 2.625 13.25C2.625 16.4492 3.94531 19.3438 6.02734 21.4258C6.73828 18.6328 9.32812 16.5 12.375 16.5H15.625C18.6211 16.5 21.2109 18.6328 21.9219 21.4258ZM20.4492 22.5938V22.6445C20.2461 20.1055 18.1641 18.125 15.625 18.125H12.375C9.78516 18.125 7.70312 20.1055 7.5 22.6445C9.32812 23.9141 11.5625 24.625 14 24.625C16.3867 24.625 18.6211 23.9141 20.4492 22.5938ZM14 26.25C9.32812 26.25 5.0625 23.8125 2.72656 19.75C0.390625 15.7383 0.390625 10.8125 2.72656 6.75C5.0625 2.73828 9.32812 0.25 14 0.25C18.6211 0.25 22.8867 2.73828 25.2227 6.75C27.5586 10.8125 27.5586 15.7383 25.2227 19.75C22.8867 23.8125 18.6211 26.25 14 26.25ZM14 13.25C14.8633 13.25 15.625 12.793 16.082 12.0312C16.5391 11.3203 16.5391 10.3555 16.082 9.59375C15.625 8.88281 14.8633 8.375 14 8.375C13.0859 8.375 12.3242 8.88281 11.8672 9.59375C11.4102 10.3555 11.4102 11.3203 11.8672 12.0312C12.3242 12.793 13.0859 13.25 14 13.25ZM9.9375 10.8125C9.9375 9.39062 10.6992 8.07031 11.9688 7.30859C13.1875 6.59766 14.7617 6.59766 16.0312 7.30859C17.25 8.07031 18.0625 9.39062 18.0625 10.8125C18.0625 12.2852 17.25 13.6055 16.0312 14.3672C14.7617 15.0781 13.1875 15.0781 11.9688 14.3672C10.6992 13.6055 9.9375 12.2852 9.9375 10.8125Z" fill="#050041"/>
</svg>
