<svg width="12" height="13" viewBox="0 0 12 13" fill="none" xmlns="http://www.w3.org/2000/svg">
<path d="M9.35156 9.52344C8.8125 8.60938 7.85156 8 6.75 8H5.25C4.125 8 3.16406 8.60938 2.64844 9.52344C3.46875 10.4375 4.66406 11 6 11C7.3125 11 8.50781 10.4375 9.35156 9.52344ZM0 6.5C0 4.36719 1.125 2.39844 3 1.32031C4.85156 0.242188 7.125 0.242188 9 1.32031C10.8516 2.39844 12 4.36719 12 6.5C12 8.65625 10.8516 10.625 9 11.7031C7.125 12.7812 4.85156 12.7812 3 11.7031C1.125 10.625 0 8.65625 0 6.5ZM6 6.875C6.58594 6.875 7.14844 6.57031 7.45312 6.03125C7.75781 5.51562 7.75781 4.88281 7.45312 4.34375C7.14844 3.82812 6.58594 3.5 6 3.5C5.39062 3.5 4.82812 3.82812 4.52344 4.34375C4.21875 4.88281 4.21875 5.51562 4.52344 6.03125C4.82812 6.57031 5.39062 6.875 6 6.875Z" fill="#303030"/>
</svg>
