<svg width="28" height="27" viewBox="0 0 28 27" fill="none" xmlns="http://www.w3.org/2000/svg">
<path d="M21.6172 20.5625C23.4453 18.6836 24.5625 16.0938 24.5625 13.25C24.5625 7.46094 19.7891 2.6875 14 2.6875C8.16016 2.6875 3.4375 7.46094 3.4375 13.25C3.4375 16.0938 4.50391 18.6836 6.33203 20.5625C7.29688 18.1758 9.63281 16.5 12.375 16.5H15.625C18.3164 16.5 20.6523 18.1758 21.6172 20.5625ZM19.5859 22.2383C19.2305 20.3594 17.5547 18.9375 15.625 18.9375H12.375C10.3945 18.9375 8.71875 20.3594 8.36328 22.2383C9.98828 23.2539 11.918 23.8125 14 23.8125C16.0312 23.8125 17.9609 23.2539 19.5859 22.2383ZM14 26.25C9.32812 26.25 5.0625 23.8125 2.72656 19.75C0.390625 15.7383 0.390625 10.8125 2.72656 6.75C5.0625 2.73828 9.32812 0.25 14 0.25C18.6211 0.25 22.8867 2.73828 25.2227 6.75C27.5586 10.8125 27.5586 15.7383 25.2227 19.75C22.8867 23.8125 18.6211 26.25 14 26.25ZM14 12.4375C14.7109 12.4375 15.3711 12.082 15.7266 11.4219C16.082 10.8125 16.082 10.0508 15.7266 9.39062C15.3711 8.78125 14.7109 8.375 14 8.375C13.2383 8.375 12.5781 8.78125 12.2227 9.39062C11.8672 10.0508 11.8672 10.8125 12.2227 11.4219C12.5781 12.082 13.2383 12.4375 14 12.4375ZM9.53125 10.4062C9.53125 8.83203 10.3438 7.35938 11.7656 6.54688C13.1367 5.78516 14.8125 5.78516 16.2344 6.54688C17.6055 7.35938 18.4688 8.83203 18.4688 10.4062C18.4688 12.0312 17.6055 13.5039 16.2344 14.3164C14.8125 15.0781 13.1367 15.0781 11.7656 14.3164C10.3438 13.5039 9.53125 12.0312 9.53125 10.4062Z" fill="#080808"/>
</svg>
