<svg width="8" height="8" viewBox="0 0 8 8" fill="none" xmlns="http://www.w3.org/2000/svg">
<path d="M7.58594 1.21094L4.77344 4.02344L7.5625 6.8125C7.79688 7.02344 7.79688 7.375 7.5625 7.58594C7.35156 7.82031 7 7.82031 6.78906 7.58594L3.97656 4.79688L1.1875 7.58594C0.976562 7.82031 0.625 7.82031 0.414062 7.58594C0.179688 7.375 0.179688 7.02344 0.414062 6.78906L3.20312 4L0.414062 1.21094C0.179688 1 0.179688 0.648438 0.414062 0.414062C0.625 0.203125 0.976562 0.203125 1.21094 0.414062L4 3.22656L6.78906 0.4375C7 0.203125 7.35156 0.203125 7.58594 0.4375C7.79688 0.648438 7.79688 1 7.58594 1.21094Z" fill="#1B1C1D"/>
</svg>
