<svg width="18" height="16" viewBox="0 0 18 16" fill="none" xmlns="http://www.w3.org/2000/svg">
<path d="M9 16C6.125 16 3.5 14.5 2.0625 12C0.625 9.53125 0.625 6.5 2.0625 4C3.5 1.53125 6.125 0 9 0C11.8438 0 14.4688 1.53125 15.9062 4C17.3438 6.5 17.3438 9.53125 15.9062 12C14.4688 14.5 11.8438 16 9 16ZM12.0312 6L11 4.96875L10.4688 5.5L9 6.96875L7.53125 5.5L7 4.96875L5.9375 6L6.46875 6.53125L7.9375 8L6.46875 9.46875L5.9375 10L7 11.0625L7.53125 10.5312L9 9.0625L10.4688 10.5312L11 11.0625L12.0312 10L11.5 9.46875L10.0312 8L11.5 6.53125L12.0312 6Z" fill="#DC2828"/>
</svg>
